<?xml version="1.0" encoding="UTF-8" standalone="no"?>
<!DOCTYPE svg PUBLIC "-//W3C//DTD SVG 1.1//EN"
 "http://www.w3.org/Graphics/SVG/1.1/DTD/svg11.dtd">
<!-- Generated by graphviz version 2.43.0 (0)
 -->
<!-- Title: MyGraph Pages: 1 -->
<svg width="460pt" height="428pt"
 viewBox="0.00 0.00 460.00 428.00" xmlns="http://www.w3.org/2000/svg" xmlns:xlink="http://www.w3.org/1999/xlink">
<g id="graph0" class="graph" transform="scale(1 1) rotate(0) translate(4 424)">
<title>MyGraph</title>
<polygon fill="white" stroke="transparent" points="-4,4 -4,-424 456,-424 456,4 -4,4"/>
<!-- 2 -->
<g id="node1" class="node">
<title>2</title>
<ellipse fill="none" stroke="black" cx="18" cy="-127" rx="18" ry="18"/>
<text text-anchor="middle" x="18" y="-123.3" font-family="Helvetica,Arial,sans-serif" font-size="14.00">2</text>
</g>
<!-- 0 -->
<g id="node2" class="node">
<title>0</title>
<ellipse fill="none" stroke="black" cx="98" cy="-213" rx="18" ry="18"/>
<text text-anchor="middle" x="98" y="-209.3" font-family="Helvetica,Arial,sans-serif" font-size="14.00">0</text>
</g>
<!-- 2&#45;&gt;0 -->
<g id="edge1" class="edge">
<title>2&#45;&gt;0</title>
<path fill="none" stroke="black" d="M33.43,-137.1C42.23,-143.64 53.39,-152.66 62,-162 69.53,-170.17 76.69,-180.07 82.55,-188.97"/>
<polygon fill="black" stroke="black" points="79.62,-190.88 87.95,-197.43 85.52,-187.11 79.62,-190.88"/>
<text text-anchor="middle" x="58" y="-165.8" font-family="Helvetica,Arial,sans-serif" font-size="14.00">8</text>
</g>
<!-- 3 -->
<g id="node3" class="node">
<title>3</title>
<ellipse fill="none" stroke="black" cx="434" cy="-246" rx="18" ry="18"/>
<text text-anchor="middle" x="434" y="-242.3" font-family="Helvetica,Arial,sans-serif" font-size="14.00">3</text>
</g>
<!-- 2&#45;&gt;3 -->
<g id="edge2" class="edge">
<title>2&#45;&gt;3</title>
<path fill="none" stroke="black" d="M20.15,-145.24C24.55,-207.09 42.86,-405 97,-405 97,-405 97,-405 355,-405 412.64,-405 427.69,-319.73 431.62,-274.08"/>
<polygon fill="black" stroke="black" points="435.12,-274.16 432.36,-263.93 428.14,-273.65 435.12,-274.16"/>
<text text-anchor="middle" x="222" y="-408.8" font-family="Helvetica,Arial,sans-serif" font-size="14.00">1</text>
</g>
<!-- 4 -->
<g id="node4" class="node">
<title>4</title>
<ellipse fill="none" stroke="black" cx="354" cy="-155" rx="18" ry="18"/>
<text text-anchor="middle" x="354" y="-151.3" font-family="Helvetica,Arial,sans-serif" font-size="14.00">4</text>
</g>
<!-- 2&#45;&gt;4 -->
<g id="edge3" class="edge">
<title>2&#45;&gt;4</title>
<path fill="none" stroke="black" d="M35.77,-123.09C77.69,-113.83 190.39,-92.14 284,-103 299.42,-104.79 304.89,-102.69 318,-111 325.94,-116.03 332.86,-123.51 338.4,-130.87"/>
<polygon fill="black" stroke="black" points="335.68,-133.09 344.26,-139.32 341.44,-129.1 335.68,-133.09"/>
<text text-anchor="middle" x="178" y="-106.8" font-family="Helvetica,Arial,sans-serif" font-size="14.00">3</text>
</g>
<!-- 0&#45;&gt;2 -->
<g id="edge7" class="edge">
<title>0&#45;&gt;2</title>
<path fill="none" stroke="black" d="M83.02,-202.82C74.19,-196.03 62.82,-186.61 54,-177 46.66,-169 39.6,-159.4 33.76,-150.76"/>
<polygon fill="black" stroke="black" points="36.56,-148.65 28.15,-142.21 30.71,-152.49 36.56,-148.65"/>
<text text-anchor="middle" x="58" y="-187.8" font-family="Helvetica,Arial,sans-serif" font-size="14.00">0</text>
</g>
<!-- 0&#45;&gt;3 -->
<g id="edge9" class="edge">
<title>0&#45;&gt;3</title>
<path fill="none" stroke="black" d="M100.15,-230.97C103.77,-270.6 118.46,-362 177,-362 177,-362 177,-362 355,-362 397.45,-362 418.3,-307.85 427.26,-273.55"/>
<polygon fill="black" stroke="black" points="430.71,-274.16 429.66,-263.62 423.91,-272.51 430.71,-274.16"/>
<text text-anchor="middle" x="266" y="-365.8" font-family="Helvetica,Arial,sans-serif" font-size="14.00">0</text>
</g>
<!-- 1 -->
<g id="node6" class="node">
<title>1</title>
<ellipse fill="none" stroke="black" cx="178" cy="-185" rx="18" ry="18"/>
<text text-anchor="middle" x="178" y="-181.3" font-family="Helvetica,Arial,sans-serif" font-size="14.00">1</text>
</g>
<!-- 0&#45;&gt;1 -->
<g id="edge8" class="edge">
<title>0&#45;&gt;1</title>
<path fill="none" stroke="black" d="M109.26,-198.71C115.48,-191.31 124.11,-183.01 134,-179 139.33,-176.84 145.29,-176.5 151.05,-177.08"/>
<polygon fill="black" stroke="black" points="150.52,-180.55 160.99,-178.95 151.81,-173.67 150.52,-180.55"/>
<text text-anchor="middle" x="138" y="-182.8" font-family="Helvetica,Arial,sans-serif" font-size="14.00">0</text>
</g>
<!-- 3&#45;&gt;2 -->
<g id="edge11" class="edge">
<title>3&#45;&gt;2</title>
<path fill="none" stroke="black" d="M431.22,-227.91C425.13,-171.1 402.83,0 355,0 97,0 97,0 97,0 50.96,0 31.24,-61.35 23.49,-98.77"/>
<polygon fill="black" stroke="black" points="19.96,-98.6 21.53,-109.07 26.84,-99.9 19.96,-98.6"/>
<text text-anchor="middle" x="222" y="-3.8" font-family="Helvetica,Arial,sans-serif" font-size="14.00">1</text>
</g>
<!-- 3&#45;&gt;0 -->
<g id="edge12" class="edge">
<title>3&#45;&gt;0</title>
<path fill="none" stroke="black" d="M424,-261.08C411.26,-280.28 386.02,-311 355,-311 177,-311 177,-311 177,-311 140.43,-311 118.25,-268.71 107.33,-239.69"/>
<polygon fill="black" stroke="black" points="110.56,-238.33 103.93,-230.07 103.96,-240.67 110.56,-238.33"/>
<text text-anchor="middle" x="266" y="-314.8" font-family="Helvetica,Arial,sans-serif" font-size="14.00">10</text>
</g>
<!-- 3&#45;&gt;4 -->
<g id="edge10" class="edge">
<title>3&#45;&gt;4</title>
<path fill="none" stroke="black" d="M429.18,-228.55C424.57,-211.41 415.2,-185.63 398,-170 393.43,-165.85 387.64,-162.83 381.8,-160.64"/>
<polygon fill="black" stroke="black" points="382.73,-157.27 372.14,-157.7 380.68,-163.96 382.73,-157.27"/>
<text text-anchor="middle" x="394" y="-173.8" font-family="Helvetica,Arial,sans-serif" font-size="14.00">0</text>
</g>
<!-- 3&#45;&gt;1 -->
<g id="edge13" class="edge">
<title>3&#45;&gt;1</title>
<path fill="none" stroke="black" d="M416.27,-241.98C373.15,-231.63 257.91,-203.95 205.55,-191.38"/>
<polygon fill="black" stroke="black" points="206.21,-187.93 195.67,-189 204.57,-194.74 206.21,-187.93"/>
<text text-anchor="middle" x="310" y="-221.8" font-family="Helvetica,Arial,sans-serif" font-size="14.00">7</text>
</g>
<!-- 4&#45;&gt;2 -->
<g id="edge5" class="edge">
<title>4&#45;&gt;2</title>
<path fill="none" stroke="black" d="M348.09,-137.49C338.25,-106.68 313.04,-46 267,-46 97,-46 97,-46 97,-46 65.77,-46 43.12,-77.63 30.51,-101.35"/>
<polygon fill="black" stroke="black" points="27.22,-100.1 25.88,-110.61 33.48,-103.23 27.22,-100.1"/>
<text text-anchor="middle" x="178" y="-49.8" font-family="Helvetica,Arial,sans-serif" font-size="14.00">9</text>
</g>
<!-- 4&#45;&gt;3 -->
<g id="edge4" class="edge">
<title>4&#45;&gt;3</title>
<path fill="none" stroke="black" d="M367.95,-166.93C376.77,-175.3 388.53,-186.93 398,-198 404.7,-205.83 411.49,-214.85 417.3,-222.95"/>
<polygon fill="black" stroke="black" points="414.53,-225.11 423.15,-231.27 420.26,-221.08 414.53,-225.11"/>
<text text-anchor="middle" x="394" y="-201.8" font-family="Helvetica,Arial,sans-serif" font-size="14.00">5</text>
</g>
<!-- 5 -->
<g id="node5" class="node">
<title>5</title>
<ellipse fill="none" stroke="black" cx="266" cy="-130" rx="18" ry="18"/>
<text text-anchor="middle" x="266" y="-126.3" font-family="Helvetica,Arial,sans-serif" font-size="14.00">5</text>
</g>
<!-- 4&#45;&gt;5 -->
<g id="edge6" class="edge">
<title>4&#45;&gt;5</title>
<path fill="none" stroke="black" d="M343.58,-140.24C337.42,-132.02 328.56,-122.55 318,-118 309.71,-114.43 300.19,-115.43 291.64,-117.99"/>
<polygon fill="black" stroke="black" points="290.31,-114.75 282.17,-121.54 292.76,-121.31 290.31,-114.75"/>
<text text-anchor="middle" x="310" y="-121.8" font-family="Helvetica,Arial,sans-serif" font-size="14.00">0</text>
</g>
<!-- 5&#45;&gt;4 -->
<g id="edge18" class="edge">
<title>5&#45;&gt;4</title>
<path fill="none" stroke="black" d="M283.58,-134.82C295.84,-138.38 312.76,-143.3 326.84,-147.39"/>
<polygon fill="black" stroke="black" points="325.89,-150.76 336.47,-150.19 327.84,-144.04 325.89,-150.76"/>
<text text-anchor="middle" x="310" y="-147.8" font-family="Helvetica,Arial,sans-serif" font-size="14.00">14</text>
</g>
<!-- 5&#45;&gt;1 -->
<g id="edge19" class="edge">
<title>5&#45;&gt;1</title>
<path fill="none" stroke="black" d="M249.33,-136.89C238.98,-141.7 225.29,-148.57 214,-156 209.14,-159.2 204.17,-162.96 199.57,-166.7"/>
<polygon fill="black" stroke="black" points="197.16,-164.15 191.76,-173.26 201.67,-169.5 197.16,-164.15"/>
<text text-anchor="middle" x="222" y="-159.8" font-family="Helvetica,Arial,sans-serif" font-size="14.00">11</text>
</g>
<!-- 1&#45;&gt;0 -->
<g id="edge15" class="edge">
<title>1&#45;&gt;0</title>
<path fill="none" stroke="black" d="M160.86,-190.79C150.41,-194.55 136.56,-199.52 124.63,-203.8"/>
<polygon fill="black" stroke="black" points="123.39,-200.53 115.16,-207.2 125.76,-207.11 123.39,-200.53"/>
<text text-anchor="middle" x="138" y="-202.8" font-family="Helvetica,Arial,sans-serif" font-size="14.00">7</text>
</g>
<!-- 1&#45;&gt;3 -->
<g id="edge16" class="edge">
<title>1&#45;&gt;3</title>
<path fill="none" stroke="black" d="M192.73,-195.8C198.96,-200.33 206.59,-205.38 214,-209 286.16,-244.26 309.9,-244.12 390,-250 395.06,-250.37 400.45,-250.27 405.64,-249.91"/>
<polygon fill="black" stroke="black" points="406.25,-253.37 415.85,-248.9 405.56,-246.4 406.25,-253.37"/>
<text text-anchor="middle" x="310" y="-246.8" font-family="Helvetica,Arial,sans-serif" font-size="14.00">4</text>
</g>
<!-- 1&#45;&gt;4 -->
<g id="edge14" class="edge">
<title>1&#45;&gt;4</title>
<path fill="none" stroke="black" d="M196.18,-182.66C222.5,-179 274.34,-171.43 318,-163 320.72,-162.47 323.55,-161.89 326.36,-161.29"/>
<polygon fill="black" stroke="black" points="327.32,-164.66 336.31,-159.06 325.79,-157.83 327.32,-164.66"/>
<text text-anchor="middle" x="266" y="-177.8" font-family="Helvetica,Arial,sans-serif" font-size="14.00">1</text>
</g>
<!-- 1&#45;&gt;5 -->
<g id="edge17" class="edge">
<title>1&#45;&gt;5</title>
<path fill="none" stroke="black" d="M182.75,-167.48C187.21,-151.46 196.38,-128.68 214,-118 222.03,-113.14 231.87,-114.14 240.76,-117.08"/>
<polygon fill="black" stroke="black" points="239.66,-120.41 250.24,-121 242.34,-113.94 239.66,-120.41"/>
<text text-anchor="middle" x="222" y="-121.8" font-family="Helvetica,Arial,sans-serif" font-size="14.00">10</text>
</g>
</g>
</svg>
