<?xml version="1.0" encoding="UTF-8" standalone="no"?>
<!DOCTYPE svg PUBLIC "-//W3C//DTD SVG 1.1//EN"
 "http://www.w3.org/Graphics/SVG/1.1/DTD/svg11.dtd">
<!-- Generated by graphviz version 2.43.0 (0)
 -->
<!-- Title: MyGraph Pages: 1 -->
<svg width="805pt" height="512pt"
 viewBox="0.00 0.00 805.00 512.00" xmlns="http://www.w3.org/2000/svg" xmlns:xlink="http://www.w3.org/1999/xlink">
<g id="graph0" class="graph" transform="scale(1 1) rotate(0) translate(4 508)">
<title>MyGraph</title>
<polygon fill="white" stroke="transparent" points="-4,4 -4,-508 801,-508 801,4 -4,4"/>
<!-- 2 -->
<g id="node1" class="node">
<title>2</title>
<ellipse fill="none" stroke="black" cx="18" cy="-347" rx="18" ry="18"/>
<text text-anchor="middle" x="18" y="-343.3" font-family="Helvetica,Arial,sans-serif" font-size="14.00">2</text>
</g>
<!-- 5 -->
<g id="node2" class="node">
<title>5</title>
<ellipse fill="none" stroke="black" cx="113" cy="-305" rx="18" ry="18"/>
<text text-anchor="middle" x="113" y="-301.3" font-family="Helvetica,Arial,sans-serif" font-size="14.00">5</text>
</g>
<!-- 2&#45;&gt;5 -->
<g id="edge1" class="edge">
<title>2&#45;&gt;5</title>
<path fill="none" stroke="black" d="M34.78,-339.88C49.07,-333.42 70.38,-323.8 86.99,-316.29"/>
<polygon fill="black" stroke="black" points="88.47,-319.47 96.15,-312.16 85.59,-313.09 88.47,-319.47"/>
<text text-anchor="middle" x="65.5" y="-333.8" font-family="Helvetica,Arial,sans-serif" font-size="14.00">0</text>
</g>
<!-- 4 -->
<g id="node3" class="node">
<title>4</title>
<ellipse fill="none" stroke="black" cx="406" cy="-315" rx="18" ry="18"/>
<text text-anchor="middle" x="406" y="-311.3" font-family="Helvetica,Arial,sans-serif" font-size="14.00">4</text>
</g>
<!-- 2&#45;&gt;4 -->
<g id="edge2" class="edge">
<title>2&#45;&gt;4</title>
<path fill="none" stroke="black" d="M22,-364.7C29.57,-402.76 53.21,-489 112,-489 112,-489 112,-489 304,-489 337.67,-489 377.91,-390.32 395.73,-341.59"/>
<polygon fill="black" stroke="black" points="399.08,-342.6 399.18,-332 392.5,-340.22 399.08,-342.6"/>
<text text-anchor="middle" x="208" y="-492.8" font-family="Helvetica,Arial,sans-serif" font-size="14.00">766</text>
</g>
<!-- 5&#45;&gt;2 -->
<g id="edge5" class="edge">
<title>5&#45;&gt;2</title>
<path fill="none" stroke="black" d="M95.65,-300.06C83.53,-297.34 66.95,-295.67 54,-302 44.99,-306.41 37.63,-314.38 32.02,-322.4"/>
<polygon fill="black" stroke="black" points="29,-320.63 26.63,-330.96 34.92,-324.36 29,-320.63"/>
<text text-anchor="middle" x="65.5" y="-305.8" font-family="Helvetica,Arial,sans-serif" font-size="14.00">766</text>
</g>
<!-- 5&#45;&gt;4 -->
<g id="edge6" class="edge">
<title>5&#45;&gt;4</title>
<path fill="none" stroke="black" d="M131.33,-305.6C180.06,-307.27 318.53,-312.03 377.68,-314.06"/>
<polygon fill="black" stroke="black" points="377.64,-317.56 387.76,-314.41 377.89,-310.57 377.64,-317.56"/>
<text text-anchor="middle" x="255.5" y="-313.8" font-family="Helvetica,Arial,sans-serif" font-size="14.00">0</text>
</g>
<!-- 0 -->
<g id="node4" class="node">
<title>0</title>
<ellipse fill="none" stroke="black" cx="699" cy="-335" rx="18" ry="18"/>
<text text-anchor="middle" x="699" y="-331.3" font-family="Helvetica,Arial,sans-serif" font-size="14.00">0</text>
</g>
<!-- 5&#45;&gt;0 -->
<g id="edge3" class="edge">
<title>5&#45;&gt;0</title>
<path fill="none" stroke="black" d="M114.9,-323.12C117.05,-347.77 124.34,-391.89 149,-419 167.77,-439.64 179.1,-443 207,-443 207,-443 207,-443 597,-443 630.63,-443 639.86,-430.4 663,-406 674.91,-393.44 683.57,-376.06 689.3,-361.63"/>
<polygon fill="black" stroke="black" points="692.6,-362.81 692.8,-352.22 686.03,-360.37 692.6,-362.81"/>
<text text-anchor="middle" x="406" y="-446.8" font-family="Helvetica,Arial,sans-serif" font-size="14.00">&#45;343</text>
</g>
<!-- 1 -->
<g id="node5" class="node">
<title>1</title>
<ellipse fill="none" stroke="black" cx="208" cy="-178" rx="18" ry="18"/>
<text text-anchor="middle" x="208" y="-174.3" font-family="Helvetica,Arial,sans-serif" font-size="14.00">1</text>
</g>
<!-- 5&#45;&gt;1 -->
<g id="edge4" class="edge">
<title>5&#45;&gt;1</title>
<path fill="none" stroke="black" d="M114.73,-286.71C116.69,-262.4 123.77,-219.65 149,-195 157.25,-186.94 169.1,-182.67 179.94,-180.42"/>
<polygon fill="black" stroke="black" points="180.56,-183.86 189.88,-178.82 179.45,-176.95 180.56,-183.86"/>
<text text-anchor="middle" x="160.5" y="-198.8" font-family="Helvetica,Arial,sans-serif" font-size="14.00">0</text>
</g>
<!-- 4&#45;&gt;2 -->
<g id="edge17" class="edge">
<title>4&#45;&gt;2</title>
<path fill="none" stroke="black" d="M391.55,-325.9C373.01,-339.79 338.04,-362 304,-362 112,-362 112,-362 112,-362 89.34,-362 63.96,-357.6 45.45,-353.57"/>
<polygon fill="black" stroke="black" points="46.2,-350.15 35.67,-351.34 44.64,-356.98 46.2,-350.15"/>
<text text-anchor="middle" x="208" y="-365.8" font-family="Helvetica,Arial,sans-serif" font-size="14.00">0</text>
</g>
<!-- 4&#45;&gt;5 -->
<g id="edge18" class="edge">
<title>4&#45;&gt;5</title>
<path fill="none" stroke="black" d="M388.28,-311.57C382.5,-310.41 375.97,-309.12 370,-308 314.4,-297.58 300.48,-286.75 244,-290 208.32,-292.05 167.39,-297.25 141.15,-300.95"/>
<polygon fill="black" stroke="black" points="140.59,-297.49 131.19,-302.38 141.59,-304.42 140.59,-297.49"/>
<text text-anchor="middle" x="255.5" y="-293.8" font-family="Helvetica,Arial,sans-serif" font-size="14.00">0</text>
</g>
<!-- 9 -->
<g id="node10" class="node">
<title>9</title>
<ellipse fill="none" stroke="black" cx="303" cy="-183" rx="18" ry="18"/>
<text text-anchor="middle" x="303" y="-179.3" font-family="Helvetica,Arial,sans-serif" font-size="14.00">9</text>
</g>
<!-- 4&#45;&gt;9 -->
<g id="edge19" class="edge">
<title>4&#45;&gt;9</title>
<path fill="none" stroke="black" d="M395.98,-299.61C393.1,-294.18 390.11,-287.95 388,-282 374.94,-245.2 397.78,-223.45 370,-196 359.91,-186.02 344.52,-182.59 331.15,-181.73"/>
<polygon fill="black" stroke="black" points="331.06,-178.23 320.99,-181.53 330.92,-185.23 331.06,-178.23"/>
<text text-anchor="middle" x="354.5" y="-199.8" font-family="Helvetica,Arial,sans-serif" font-size="14.00">766</text>
</g>
<!-- 0&#45;&gt;5 -->
<g id="edge8" class="edge">
<title>0&#45;&gt;5</title>
<path fill="none" stroke="black" d="M685.87,-347.37C668.06,-364.13 633.04,-392 597,-392 452.5,-392 452.5,-392 452.5,-392 335.73,-392 296.92,-427.93 190,-381 164.6,-369.85 143.07,-346.02 129.48,-327.99"/>
<polygon fill="black" stroke="black" points="132.17,-325.74 123.47,-319.69 126.5,-329.85 132.17,-325.74"/>
<text text-anchor="middle" x="406" y="-398.8" font-family="Helvetica,Arial,sans-serif" font-size="14.00">343</text>
</g>
<!-- 8 -->
<g id="node6" class="node">
<title>8</title>
<ellipse fill="none" stroke="black" cx="779" cy="-335" rx="18" ry="18"/>
<text text-anchor="middle" x="779" y="-331.3" font-family="Helvetica,Arial,sans-serif" font-size="14.00">8</text>
</g>
<!-- 0&#45;&gt;8 -->
<g id="edge9" class="edge">
<title>0&#45;&gt;8</title>
<path fill="none" stroke="black" d="M717.31,-335C727.11,-335 739.58,-335 750.67,-335"/>
<polygon fill="black" stroke="black" points="750.74,-338.5 760.74,-335 750.74,-331.5 750.74,-338.5"/>
<text text-anchor="middle" x="739" y="-338.8" font-family="Helvetica,Arial,sans-serif" font-size="14.00">0</text>
</g>
<!-- 7 -->
<g id="node7" class="node">
<title>7</title>
<ellipse fill="none" stroke="black" cx="596" cy="-193" rx="18" ry="18"/>
<text text-anchor="middle" x="596" y="-189.3" font-family="Helvetica,Arial,sans-serif" font-size="14.00">7</text>
</g>
<!-- 0&#45;&gt;7 -->
<g id="edge10" class="edge">
<title>0&#45;&gt;7</title>
<path fill="none" stroke="black" d="M687.73,-320.56C670.17,-295.87 634.23,-245.34 613.24,-215.83"/>
<polygon fill="black" stroke="black" points="615.89,-213.52 607.24,-207.4 610.18,-217.57 615.89,-213.52"/>
<text text-anchor="middle" x="647.5" y="-289.8" font-family="Helvetica,Arial,sans-serif" font-size="14.00">1143</text>
</g>
<!-- 1&#45;&gt;5 -->
<g id="edge26" class="edge">
<title>1&#45;&gt;5</title>
<path fill="none" stroke="black" d="M195.36,-191.21C183.26,-205.18 164.02,-228.04 149,-249 141.74,-259.13 134.33,-270.76 128.21,-280.78"/>
<polygon fill="black" stroke="black" points="125.16,-279.08 123,-289.45 131.15,-282.69 125.16,-279.08"/>
<text text-anchor="middle" x="160.5" y="-252.8" font-family="Helvetica,Arial,sans-serif" font-size="14.00">423</text>
</g>
<!-- 1&#45;&gt;7 -->
<g id="edge27" class="edge">
<title>1&#45;&gt;7</title>
<path fill="none" stroke="black" d="M210.06,-159.95C213.8,-114.7 230.35,0 302,0 302,0 302,0 502,0 574.2,0 590.38,-110.98 593.98,-164.63"/>
<polygon fill="black" stroke="black" points="590.5,-165.06 594.56,-174.84 597.49,-164.66 590.5,-165.06"/>
<text text-anchor="middle" x="406" y="-3.8" font-family="Helvetica,Arial,sans-serif" font-size="14.00">0</text>
</g>
<!-- 6 -->
<g id="node8" class="node">
<title>6</title>
<ellipse fill="none" stroke="black" cx="501" cy="-118" rx="18" ry="18"/>
<text text-anchor="middle" x="501" y="-114.3" font-family="Helvetica,Arial,sans-serif" font-size="14.00">6</text>
</g>
<!-- 1&#45;&gt;6 -->
<g id="edge25" class="edge">
<title>1&#45;&gt;6</title>
<path fill="none" stroke="black" d="M222.76,-167.1C245.41,-149.95 292.66,-117.45 339,-106 393.36,-92.57 409.76,-96.79 465,-106 468.13,-106.52 471.36,-107.29 474.52,-108.19"/>
<polygon fill="black" stroke="black" points="473.67,-111.59 484.26,-111.37 475.84,-104.93 473.67,-111.59"/>
<text text-anchor="middle" x="354.5" y="-109.8" font-family="Helvetica,Arial,sans-serif" font-size="14.00">433</text>
</g>
<!-- 1&#45;&gt;9 -->
<g id="edge28" class="edge">
<title>1&#45;&gt;9</title>
<path fill="none" stroke="black" d="M223.78,-168.98C229.82,-165.8 237.02,-162.61 244,-161 253.96,-158.71 257.18,-158.17 267,-161 271.47,-162.29 275.91,-164.33 280.06,-166.66"/>
<polygon fill="black" stroke="black" points="278.25,-169.66 288.57,-172.06 282,-163.75 278.25,-169.66"/>
<text text-anchor="middle" x="255.5" y="-164.8" font-family="Helvetica,Arial,sans-serif" font-size="14.00">287</text>
</g>
<!-- 8&#45;&gt;0 -->
<g id="edge7" class="edge">
<title>8&#45;&gt;0</title>
<path fill="none" stroke="black" d="M763.28,-325.46C757.25,-322.08 750.04,-318.7 743,-317 736.13,-315.34 728.94,-316.9 722.45,-319.69"/>
<polygon fill="black" stroke="black" points="720.75,-316.63 713.56,-324.41 724.04,-322.81 720.75,-316.63"/>
<text text-anchor="middle" x="739" y="-320.8" font-family="Helvetica,Arial,sans-serif" font-size="14.00">0</text>
</g>
<!-- 7&#45;&gt;0 -->
<g id="edge15" class="edge">
<title>7&#45;&gt;0</title>
<path fill="none" stroke="black" d="M613.68,-196.77C628.61,-200.98 650.08,-209.23 663,-224 683.39,-247.32 691.91,-282.52 695.47,-307"/>
<polygon fill="black" stroke="black" points="692.02,-307.62 696.74,-317.1 698.96,-306.74 692.02,-307.62"/>
<text text-anchor="middle" x="647.5" y="-227.8" font-family="Helvetica,Arial,sans-serif" font-size="14.00">343</text>
</g>
<!-- 7&#45;&gt;1 -->
<g id="edge14" class="edge">
<title>7&#45;&gt;1</title>
<path fill="none" stroke="black" d="M579.66,-201.21C539.84,-221.46 429.95,-270.67 339,-249 297.78,-239.18 255.77,-212.59 231.06,-194.88"/>
<polygon fill="black" stroke="black" points="232.91,-191.9 222.77,-188.81 228.77,-197.54 232.91,-191.9"/>
<text text-anchor="middle" x="406" y="-258.8" font-family="Helvetica,Arial,sans-serif" font-size="14.00">811</text>
</g>
<!-- 7&#45;&gt;6 -->
<g id="edge16" class="edge">
<title>7&#45;&gt;6</title>
<path fill="none" stroke="black" d="M580.87,-183.14C568.93,-174.67 551.51,-161.96 537,-150 532.12,-145.97 527.01,-141.48 522.25,-137.16"/>
<polygon fill="black" stroke="black" points="524.41,-134.39 514.68,-130.18 519.66,-139.53 524.41,-134.39"/>
<text text-anchor="middle" x="548.5" y="-171.8" font-family="Helvetica,Arial,sans-serif" font-size="14.00">332</text>
</g>
<!-- 6&#45;&gt;1 -->
<g id="edge11" class="edge">
<title>6&#45;&gt;1</title>
<path fill="none" stroke="black" d="M492.83,-101.81C486.95,-90.4 477.56,-75.65 465,-67 418.13,-34.7 395.52,-37.26 339,-44 295.86,-49.15 275.74,-37.34 244,-67 221.13,-88.36 213.12,-124.5 210.37,-149.72"/>
<polygon fill="black" stroke="black" points="206.87,-149.52 209.48,-159.79 213.84,-150.13 206.87,-149.52"/>
<text text-anchor="middle" x="354.5" y="-47.8" font-family="Helvetica,Arial,sans-serif" font-size="14.00">332</text>
</g>
<!-- 6&#45;&gt;7 -->
<g id="edge13" class="edge">
<title>6&#45;&gt;7</title>
<path fill="none" stroke="black" d="M518.98,-119.66C531.41,-121.61 548.11,-125.84 560,-135 570.77,-143.3 578.95,-155.93 584.69,-167.29"/>
<polygon fill="black" stroke="black" points="581.54,-168.82 588.93,-176.41 587.88,-165.87 581.54,-168.82"/>
<text text-anchor="middle" x="548.5" y="-138.8" font-family="Helvetica,Arial,sans-serif" font-size="14.00">0</text>
</g>
<!-- 3 -->
<g id="node9" class="node">
<title>3</title>
<ellipse fill="none" stroke="black" cx="406" cy="-140" rx="18" ry="18"/>
<text text-anchor="middle" x="406" y="-136.3" font-family="Helvetica,Arial,sans-serif" font-size="14.00">3</text>
</g>
<!-- 6&#45;&gt;3 -->
<g id="edge12" class="edge">
<title>6&#45;&gt;3</title>
<path fill="none" stroke="black" d="M484.19,-124.64C478.25,-126.93 471.4,-129.33 465,-131 455.01,-133.6 443.84,-135.56 433.99,-136.96"/>
<polygon fill="black" stroke="black" points="433.39,-133.51 423.93,-138.29 434.31,-140.45 433.39,-133.51"/>
<text text-anchor="middle" x="453.5" y="-139.8" font-family="Helvetica,Arial,sans-serif" font-size="14.00">433</text>
</g>
<!-- 3&#45;&gt;6 -->
<g id="edge20" class="edge">
<title>3&#45;&gt;6</title>
<path fill="none" stroke="black" d="M418.99,-127.01C425.22,-121.23 433.34,-115.04 442,-112 452.07,-108.47 463.68,-108.86 473.85,-110.55"/>
<polygon fill="black" stroke="black" points="473.3,-114.01 483.81,-112.66 474.75,-107.16 473.3,-114.01"/>
<text text-anchor="middle" x="453.5" y="-115.8" font-family="Helvetica,Arial,sans-serif" font-size="14.00">0</text>
</g>
<!-- 3&#45;&gt;9 -->
<g id="edge21" class="edge">
<title>3&#45;&gt;9</title>
<path fill="none" stroke="black" d="M388.15,-142.88C374.46,-145.62 354.88,-150.46 339,-158 334.43,-160.17 329.84,-162.94 325.54,-165.84"/>
<polygon fill="black" stroke="black" points="323.31,-163.13 317.26,-171.83 327.42,-168.8 323.31,-163.13"/>
<text text-anchor="middle" x="354.5" y="-161.8" font-family="Helvetica,Arial,sans-serif" font-size="14.00">0</text>
</g>
<!-- 9&#45;&gt;4 -->
<g id="edge22" class="edge">
<title>9&#45;&gt;4</title>
<path fill="none" stroke="black" d="M316.09,-195.66C329.85,-210.34 352.65,-235.54 370,-259 377.41,-269.02 384.84,-280.63 390.94,-290.67"/>
<polygon fill="black" stroke="black" points="387.99,-292.57 396.12,-299.36 394,-288.98 387.99,-292.57"/>
<text text-anchor="middle" x="354.5" y="-262.8" font-family="Helvetica,Arial,sans-serif" font-size="14.00">0</text>
</g>
<!-- 9&#45;&gt;1 -->
<g id="edge24" class="edge">
<title>9&#45;&gt;1</title>
<path fill="none" stroke="black" d="M284.74,-182.07C271.13,-181.34 251.91,-180.31 236.23,-179.46"/>
<polygon fill="black" stroke="black" points="236.23,-175.96 226.06,-178.92 235.86,-182.95 236.23,-175.96"/>
<text text-anchor="middle" x="255.5" y="-185.8" font-family="Helvetica,Arial,sans-serif" font-size="14.00">0</text>
</g>
<!-- 9&#45;&gt;3 -->
<g id="edge23" class="edge">
<title>9&#45;&gt;3</title>
<path fill="none" stroke="black" d="M309.78,-166.23C315.17,-153.48 324.57,-136.84 339,-129 351.48,-122.22 367.1,-124.42 380.01,-128.58"/>
<polygon fill="black" stroke="black" points="379.08,-131.97 389.67,-132.2 381.54,-125.41 379.08,-131.97"/>
<text text-anchor="middle" x="354.5" y="-132.8" font-family="Helvetica,Arial,sans-serif" font-size="14.00">1053</text>
</g>
</g>
</svg>
