<?xml version="1.0" encoding="UTF-8" standalone="no"?>
<!DOCTYPE svg PUBLIC "-//W3C//DTD SVG 1.1//EN"
 "http://www.w3.org/Graphics/SVG/1.1/DTD/svg11.dtd">
<!-- Generated by graphviz version 2.43.0 (0)
 -->
<!-- Title: MyGraph Pages: 1 -->
<svg width="619pt" height="386pt"
 viewBox="0.00 0.00 619.00 385.78" xmlns="http://www.w3.org/2000/svg" xmlns:xlink="http://www.w3.org/1999/xlink">
<g id="graph0" class="graph" transform="scale(1 1) rotate(0) translate(4 381.78)">
<title>MyGraph</title>
<polygon fill="white" stroke="transparent" points="-4,4 -4,-381.78 615,-381.78 615,4 -4,4"/>
<!-- 5 -->
<g id="node1" class="node">
<title>5</title>
<ellipse fill="none" stroke="black" cx="18" cy="-255.78" rx="18" ry="18"/>
<text text-anchor="middle" x="18" y="-252.08" font-family="Helvetica,Arial,sans-serif" font-size="14.00">5</text>
</g>
<!-- 1 -->
<g id="node2" class="node">
<title>1</title>
<ellipse fill="none" stroke="black" cx="147" cy="-194.78" rx="18" ry="18"/>
<text text-anchor="middle" x="147" y="-191.08" font-family="Helvetica,Arial,sans-serif" font-size="14.00">1</text>
</g>
<!-- 5&#45;&gt;1 -->
<g id="edge1" class="edge">
<title>5&#45;&gt;1</title>
<path fill="none" stroke="black" d="M34.92,-249.59C53.49,-242.21 84.98,-229.17 111,-215.78 114.83,-213.81 118.81,-211.59 122.66,-209.35"/>
<polygon fill="black" stroke="black" points="124.47,-212.35 131.26,-204.21 120.88,-206.34 124.47,-212.35"/>
<text text-anchor="middle" x="82.5" y="-244.58" font-family="Helvetica,Arial,sans-serif" font-size="14.00">7,&#45;13</text>
</g>
<!-- 4 -->
<g id="node3" class="node">
<title>4</title>
<ellipse fill="none" stroke="black" cx="593" cy="-226.78" rx="18" ry="18"/>
<text text-anchor="middle" x="593" y="-223.08" font-family="Helvetica,Arial,sans-serif" font-size="14.00">4</text>
</g>
<!-- 5&#45;&gt;4 -->
<g id="edge2" class="edge">
<title>5&#45;&gt;4</title>
<path fill="none" stroke="black" d="M27.62,-271.11C45.52,-300.69 89.78,-362.78 146,-362.78 146,-362.78 146,-362.78 488,-362.78 542.41,-362.78 572.19,-293.23 584.74,-253.6"/>
<polygon fill="black" stroke="black" points="588.09,-254.59 587.63,-244 581.39,-252.57 588.09,-254.59"/>
<text text-anchor="middle" x="316" y="-366.58" font-family="Helvetica,Arial,sans-serif" font-size="14.00">13,9</text>
</g>
<!-- 1&#45;&gt;5 -->
<g id="edge20" class="edge">
<title>1&#45;&gt;5</title>
<path fill="none" stroke="black" d="M129.42,-190.6C109.94,-186.65 77.31,-183.16 54,-196.78 41.75,-203.93 33.32,-217.21 27.81,-229.36"/>
<polygon fill="black" stroke="black" points="24.52,-228.14 24,-238.72 31.01,-230.78 24.52,-228.14"/>
<text text-anchor="middle" x="82.5" y="-200.58" font-family="Helvetica,Arial,sans-serif" font-size="14.00">10,13312</text>
</g>
<!-- 1&#45;&gt;4 -->
<g id="edge19" class="edge">
<title>1&#45;&gt;4</title>
<path fill="none" stroke="black" d="M153.46,-211.64C165.7,-245.76 198.72,-319.78 255,-319.78 255,-319.78 255,-319.78 488,-319.78 521.8,-319.78 532.08,-310.62 557,-287.78 567.48,-278.17 575.66,-264.69 581.47,-252.84"/>
<polygon fill="black" stroke="black" points="584.82,-253.94 585.8,-243.4 578.45,-251.03 584.82,-253.94"/>
<text text-anchor="middle" x="373" y="-323.58" font-family="Helvetica,Arial,sans-serif" font-size="14.00">1,184</text>
</g>
<!-- 0 -->
<g id="node5" class="node">
<title>0</title>
<ellipse fill="none" stroke="black" cx="373" cy="-154.78" rx="18" ry="18"/>
<text text-anchor="middle" x="373" y="-151.08" font-family="Helvetica,Arial,sans-serif" font-size="14.00">0</text>
</g>
<!-- 1&#45;&gt;0 -->
<g id="edge17" class="edge">
<title>1&#45;&gt;0</title>
<path fill="none" stroke="black" d="M165.22,-193.82C198.77,-191.63 275.04,-185.17 337,-168.78 340.23,-167.92 343.56,-166.85 346.82,-165.69"/>
<polygon fill="black" stroke="black" points="348.19,-168.91 356.25,-162.03 345.66,-162.39 348.19,-168.91"/>
<text text-anchor="middle" x="256" y="-191.58" font-family="Helvetica,Arial,sans-serif" font-size="14.00">7,&#45;31</text>
</g>
<!-- 3 -->
<g id="node6" class="node">
<title>3</title>
<ellipse fill="none" stroke="black" cx="256" cy="-67.78" rx="18" ry="18"/>
<text text-anchor="middle" x="256" y="-64.08" font-family="Helvetica,Arial,sans-serif" font-size="14.00">3</text>
</g>
<!-- 1&#45;&gt;3 -->
<g id="edge18" class="edge">
<title>1&#45;&gt;3</title>
<path fill="none" stroke="black" d="M152.1,-177.44C157.01,-159.61 166.7,-131.83 183,-112.78 190.06,-104.53 212.84,-90.87 230.91,-80.76"/>
<polygon fill="black" stroke="black" points="232.75,-83.74 239.82,-75.85 229.37,-77.61 232.75,-83.74"/>
<text text-anchor="middle" x="200" y="-116.58" font-family="Helvetica,Arial,sans-serif" font-size="14.00">4,37</text>
</g>
<!-- 4&#45;&gt;5 -->
<g id="edge13" class="edge">
<title>4&#45;&gt;5</title>
<path fill="none" stroke="black" d="M578.42,-237.44C559.36,-251.31 523.07,-273.78 488,-273.78 146,-273.78 146,-273.78 146,-273.78 111.12,-273.78 71.38,-267.04 45.79,-261.81"/>
<polygon fill="black" stroke="black" points="46.25,-258.33 35.74,-259.68 44.8,-265.18 46.25,-258.33"/>
<text text-anchor="middle" x="316" y="-277.58" font-family="Helvetica,Arial,sans-serif" font-size="14.00">0,9216</text>
</g>
<!-- 4&#45;&gt;1 -->
<g id="edge12" class="edge">
<title>4&#45;&gt;1</title>
<path fill="none" stroke="black" d="M574.68,-227.44C517.94,-229.29 332.75,-232.7 183,-205.78 180.06,-205.25 177.03,-204.55 174.03,-203.75"/>
<polygon fill="black" stroke="black" points="174.75,-200.31 164.17,-200.8 172.74,-207.02 174.75,-200.31"/>
<text text-anchor="middle" x="373" y="-229.58" font-family="Helvetica,Arial,sans-serif" font-size="14.00">0,92</text>
</g>
<!-- 2 -->
<g id="node4" class="node">
<title>2</title>
<ellipse fill="none" stroke="black" cx="487" cy="-130.78" rx="18" ry="18"/>
<text text-anchor="middle" x="487" y="-127.08" font-family="Helvetica,Arial,sans-serif" font-size="14.00">2</text>
</g>
<!-- 4&#45;&gt;2 -->
<g id="edge11" class="edge">
<title>4&#45;&gt;2</title>
<path fill="none" stroke="black" d="M588.84,-208.96C584.69,-190.88 575.62,-163.39 557,-147.78 545.4,-138.05 529.06,-133.74 515.2,-131.89"/>
<polygon fill="black" stroke="black" points="515.49,-128.41 505.2,-130.91 514.81,-135.37 515.49,-128.41"/>
<text text-anchor="middle" x="540" y="-151.58" font-family="Helvetica,Arial,sans-serif" font-size="14.00">8,&#45;11</text>
</g>
<!-- 4&#45;&gt;3 -->
<g id="edge10" class="edge">
<title>4&#45;&gt;3</title>
<path fill="none" stroke="black" d="M591.61,-208.66C590.16,-179.51 583.84,-121.46 557,-81.78 525.24,-34.81 505.48,-26.5 451,-10.78 383.78,8.62 357.36,-0.08 295,-31.78 287.76,-35.46 280.94,-40.96 275.14,-46.55"/>
<polygon fill="black" stroke="black" points="272.3,-44.45 267.9,-54.09 277.35,-49.3 272.3,-44.45"/>
<text text-anchor="middle" x="430" y="-14.58" font-family="Helvetica,Arial,sans-serif" font-size="14.00">5,&#45;28</text>
</g>
<!-- 2&#45;&gt;4 -->
<g id="edge4" class="edge">
<title>2&#45;&gt;4</title>
<path fill="none" stroke="black" d="M500.06,-143.7C506.69,-150.67 515.15,-159.35 523,-166.78 538.47,-181.41 556.68,-197.19 570.5,-208.89"/>
<polygon fill="black" stroke="black" points="568.57,-211.84 578.48,-215.6 573.08,-206.48 568.57,-211.84"/>
<text text-anchor="middle" x="540" y="-200.58" font-family="Helvetica,Arial,sans-serif" font-size="14.00">3,352</text>
</g>
<!-- 2&#45;&gt;0 -->
<g id="edge3" class="edge">
<title>2&#45;&gt;0</title>
<path fill="none" stroke="black" d="M469.3,-127.15C453.38,-124.43 428.93,-122.18 409,-128.78 403.92,-130.46 398.98,-133.19 394.48,-136.27"/>
<polygon fill="black" stroke="black" points="392.27,-133.56 386.47,-142.43 396.54,-139.11 392.27,-133.56"/>
<text text-anchor="middle" x="430" y="-132.58" font-family="Helvetica,Arial,sans-serif" font-size="14.00">8,&#45;42</text>
</g>
<!-- 2&#45;&gt;3 -->
<g id="edge5" class="edge">
<title>2&#45;&gt;3</title>
<path fill="none" stroke="black" d="M478.55,-114.75C472.54,-103.35 463.09,-88.4 451,-78.78 428.65,-60.99 419.08,-60.98 391,-55.78 349.05,-48.01 337.17,-49.28 295,-55.78 290.96,-56.4 286.76,-57.37 282.7,-58.5"/>
<polygon fill="black" stroke="black" points="281.52,-55.21 273.01,-61.52 283.6,-61.89 281.52,-55.21"/>
<text text-anchor="middle" x="373" y="-59.58" font-family="Helvetica,Arial,sans-serif" font-size="14.00">1,&#45;76</text>
</g>
<!-- 0&#45;&gt;1 -->
<g id="edge16" class="edge">
<title>0&#45;&gt;1</title>
<path fill="none" stroke="black" d="M354.83,-154.51C320.65,-154.04 246.39,-153.33 235,-155.78 212.54,-160.61 188.87,-171.66 171.9,-180.77"/>
<polygon fill="black" stroke="black" points="169.79,-177.94 162.74,-185.85 173.18,-184.06 169.79,-177.94"/>
<text text-anchor="middle" x="256" y="-159.58" font-family="Helvetica,Arial,sans-serif" font-size="14.00">0,3968</text>
</g>
<!-- 0&#45;&gt;2 -->
<g id="edge15" class="edge">
<title>0&#45;&gt;2</title>
<path fill="none" stroke="black" d="M391.03,-153.4C406.77,-151.88 430.71,-148.93 451,-143.78 454.2,-142.96 457.52,-141.96 460.78,-140.87"/>
<polygon fill="black" stroke="black" points="461.98,-144.15 470.2,-137.46 459.6,-137.57 461.98,-144.15"/>
<text text-anchor="middle" x="430" y="-155.58" font-family="Helvetica,Arial,sans-serif" font-size="14.00">0,2688</text>
</g>
<!-- 0&#45;&gt;3 -->
<g id="edge14" class="edge">
<title>0&#45;&gt;3</title>
<path fill="none" stroke="black" d="M365.63,-138.16C359.92,-125.25 350.36,-107.75 337,-96.78 328.59,-89.87 303.37,-81.31 283.47,-75.28"/>
<polygon fill="black" stroke="black" points="284.24,-71.86 273.66,-72.39 282.26,-78.58 284.24,-71.86"/>
<text text-anchor="middle" x="316" y="-100.58" font-family="Helvetica,Arial,sans-serif" font-size="14.00">0,2176</text>
</g>
<!-- 3&#45;&gt;1 -->
<g id="edge8" class="edge">
<title>3&#45;&gt;1</title>
<path fill="none" stroke="black" d="M238.19,-63.94C222.21,-61.34 198.39,-60.32 183,-72.78 155.36,-95.15 148.66,-137.8 147.48,-166.27"/>
<polygon fill="black" stroke="black" points="143.98,-166.34 147.27,-176.41 150.98,-166.49 143.98,-166.34"/>
<text text-anchor="middle" x="200" y="-76.58" font-family="Helvetica,Arial,sans-serif" font-size="14.00">7,592</text>
</g>
<!-- 3&#45;&gt;4 -->
<g id="edge9" class="edge">
<title>3&#45;&gt;4</title>
<path fill="none" stroke="black" d="M271.12,-57.96C278,-53.72 286.59,-49.18 295,-46.78 361.71,-27.69 385.8,-17.04 451,-40.78 508.8,-61.83 521.79,-79.33 557,-129.78 571.66,-150.78 580.86,-178.6 586.13,-199.06"/>
<polygon fill="black" stroke="black" points="582.79,-200.12 588.54,-209.01 589.59,-198.47 582.79,-200.12"/>
<text text-anchor="middle" x="430" y="-44.58" font-family="Helvetica,Arial,sans-serif" font-size="14.00">0,448</text>
</g>
<!-- 3&#45;&gt;2 -->
<g id="edge7" class="edge">
<title>3&#45;&gt;2</title>
<path fill="none" stroke="black" d="M274.02,-69.73C290.32,-71.79 315.55,-75.47 337,-80.78 381.07,-91.68 430.8,-109.53 460.21,-120.69"/>
<polygon fill="black" stroke="black" points="459.13,-124.03 469.72,-124.34 461.64,-117.49 459.13,-124.03"/>
<text text-anchor="middle" x="373" y="-100.58" font-family="Helvetica,Arial,sans-serif" font-size="14.00">1,38</text>
</g>
<!-- 3&#45;&gt;0 -->
<g id="edge6" class="edge">
<title>3&#45;&gt;0</title>
<path fill="none" stroke="black" d="M266.24,-82.61C273.19,-92.89 283.48,-106.36 295,-115.78 299.48,-119.44 326.55,-132.86 347.34,-142.95"/>
<polygon fill="black" stroke="black" points="345.82,-146.1 356.35,-147.3 348.87,-139.8 345.82,-146.1"/>
<text text-anchor="middle" x="316" y="-141.58" font-family="Helvetica,Arial,sans-serif" font-size="14.00">5,&#45;17</text>
</g>
</g>
</svg>
