<?xml version="1.0" encoding="UTF-8" standalone="no"?>
<!DOCTYPE svg PUBLIC "-//W3C//DTD SVG 1.1//EN"
 "http://www.w3.org/Graphics/SVG/1.1/DTD/svg11.dtd">
<!-- Generated by graphviz version 2.43.0 (0)
 -->
<!-- Title: MyGraph Pages: 1 -->
<svg width="364pt" height="154pt"
 viewBox="0.00 0.00 364.00 154.00" xmlns="http://www.w3.org/2000/svg" xmlns:xlink="http://www.w3.org/1999/xlink">
<g id="graph0" class="graph" transform="scale(1 1) rotate(0) translate(4 150)">
<title>MyGraph</title>
<polygon fill="white" stroke="transparent" points="-4,4 -4,-150 360,-150 360,4 -4,4"/>
<!-- 2 -->
<g id="node1" class="node">
<title>2</title>
<ellipse fill="none" stroke="black" cx="178" cy="-128" rx="18" ry="18"/>
<text text-anchor="middle" x="178" y="-124.3" font-family="Helvetica,Arial,sans-serif" font-size="14.00">2</text>
</g>
<!-- 4 -->
<g id="node2" class="node">
<title>4</title>
<ellipse fill="none" stroke="black" cx="258" cy="-71" rx="18" ry="18"/>
<text text-anchor="middle" x="258" y="-67.3" font-family="Helvetica,Arial,sans-serif" font-size="14.00">4</text>
</g>
<!-- 2&#45;&gt;4 -->
<g id="edge1" class="edge">
<title>2&#45;&gt;4</title>
<path fill="none" stroke="black" d="M192.94,-117.81C204.52,-109.35 221.2,-97.16 234.64,-87.34"/>
<polygon fill="black" stroke="black" points="236.9,-90.02 242.91,-81.29 232.77,-84.37 236.9,-90.02"/>
<text text-anchor="middle" x="218" y="-104.8" font-family="Helvetica,Arial,sans-serif" font-size="14.00">3</text>
</g>
<!-- 5 -->
<g id="node3" class="node">
<title>5</title>
<ellipse fill="none" stroke="black" cx="338" cy="-30" rx="18" ry="18"/>
<text text-anchor="middle" x="338" y="-26.3" font-family="Helvetica,Arial,sans-serif" font-size="14.00">5</text>
</g>
<!-- 4&#45;&gt;5 -->
<g id="edge2" class="edge">
<title>4&#45;&gt;5</title>
<path fill="none" stroke="black" d="M274.41,-62.9C285.31,-57.17 300.14,-49.38 312.63,-42.81"/>
<polygon fill="black" stroke="black" points="314.4,-45.83 321.62,-38.08 311.14,-39.64 314.4,-45.83"/>
<text text-anchor="middle" x="298" y="-54.8" font-family="Helvetica,Arial,sans-serif" font-size="14.00">0</text>
</g>
<!-- 3 -->
<g id="node4" class="node">
<title>3</title>
<ellipse fill="none" stroke="black" cx="98" cy="-77" rx="18" ry="18"/>
<text text-anchor="middle" x="98" y="-73.3" font-family="Helvetica,Arial,sans-serif" font-size="14.00">3</text>
</g>
<!-- 3&#45;&gt;2 -->
<g id="edge4" class="edge">
<title>3&#45;&gt;2</title>
<path fill="none" stroke="black" d="M113.67,-86.59C125,-94 140.89,-104.39 153.92,-112.91"/>
<polygon fill="black" stroke="black" points="152.11,-115.91 162.39,-118.45 155.94,-110.05 152.11,-115.91"/>
<text text-anchor="middle" x="138" y="-107.8" font-family="Helvetica,Arial,sans-serif" font-size="14.00">1</text>
</g>
<!-- 3&#45;&gt;4 -->
<g id="edge3" class="edge">
<title>3&#45;&gt;4</title>
<path fill="none" stroke="black" d="M116.21,-76.35C143.52,-75.31 197.01,-73.28 229.62,-72.04"/>
<polygon fill="black" stroke="black" points="229.95,-75.53 239.81,-71.65 229.69,-68.53 229.95,-75.53"/>
<text text-anchor="middle" x="178" y="-77.8" font-family="Helvetica,Arial,sans-serif" font-size="14.00">0</text>
</g>
<!-- 1 -->
<g id="node5" class="node">
<title>1</title>
<ellipse fill="none" stroke="black" cx="178" cy="-18" rx="18" ry="18"/>
<text text-anchor="middle" x="178" y="-14.3" font-family="Helvetica,Arial,sans-serif" font-size="14.00">1</text>
</g>
<!-- 3&#45;&gt;1 -->
<g id="edge5" class="edge">
<title>3&#45;&gt;1</title>
<path fill="none" stroke="black" d="M112.09,-65.72C118.58,-60.24 126.59,-53.64 134,-48 140.37,-43.15 147.45,-38.09 153.99,-33.53"/>
<polygon fill="black" stroke="black" points="156.2,-36.26 162.45,-27.71 152.23,-30.49 156.2,-36.26"/>
<text text-anchor="middle" x="138" y="-51.8" font-family="Helvetica,Arial,sans-serif" font-size="14.00">7</text>
</g>
<!-- 1&#45;&gt;4 -->
<g id="edge9" class="edge">
<title>1&#45;&gt;4</title>
<path fill="none" stroke="black" d="M193.31,-27.72C204.74,-35.49 220.99,-46.53 234.21,-55.51"/>
<polygon fill="black" stroke="black" points="232.55,-58.62 242.78,-61.34 236.48,-52.83 232.55,-58.62"/>
<text text-anchor="middle" x="218" y="-49.8" font-family="Helvetica,Arial,sans-serif" font-size="14.00">1</text>
</g>
<!-- 1&#45;&gt;5 -->
<g id="edge10" class="edge">
<title>1&#45;&gt;5</title>
<path fill="none" stroke="black" d="M196.21,-19.31C223.52,-21.38 277.01,-25.44 309.62,-27.92"/>
<polygon fill="black" stroke="black" points="309.58,-31.43 319.81,-28.69 310.11,-24.45 309.58,-31.43"/>
<text text-anchor="middle" x="258" y="-28.8" font-family="Helvetica,Arial,sans-serif" font-size="14.00">10</text>
</g>
<!-- 0 -->
<g id="node6" class="node">
<title>0</title>
<ellipse fill="none" stroke="black" cx="18" cy="-77" rx="18" ry="18"/>
<text text-anchor="middle" x="18" y="-73.3" font-family="Helvetica,Arial,sans-serif" font-size="14.00">0</text>
</g>
<!-- 0&#45;&gt;2 -->
<g id="edge6" class="edge">
<title>0&#45;&gt;2</title>
<path fill="none" stroke="black" d="M34.05,-85.91C40.13,-89.31 47.28,-93.07 54,-96 88.39,-111.01 97.38,-114.79 134,-123 138.96,-124.11 144.31,-124.99 149.49,-125.67"/>
<polygon fill="black" stroke="black" points="149.37,-129.18 159.7,-126.82 150.16,-122.22 149.37,-129.18"/>
<text text-anchor="middle" x="98" y="-121.8" font-family="Helvetica,Arial,sans-serif" font-size="14.00">0</text>
</g>
<!-- 0&#45;&gt;3 -->
<g id="edge7" class="edge">
<title>0&#45;&gt;3</title>
<path fill="none" stroke="black" d="M36.31,-77C46.11,-77 58.58,-77 69.67,-77"/>
<polygon fill="black" stroke="black" points="69.74,-80.5 79.74,-77 69.74,-73.5 69.74,-80.5"/>
<text text-anchor="middle" x="58" y="-80.8" font-family="Helvetica,Arial,sans-serif" font-size="14.00">0</text>
</g>
<!-- 0&#45;&gt;1 -->
<g id="edge8" class="edge">
<title>0&#45;&gt;1</title>
<path fill="none" stroke="black" d="M32.07,-65.5C43.8,-55.82 61.91,-42.4 80,-35 102.43,-25.83 129.76,-21.6 149.69,-19.65"/>
<polygon fill="black" stroke="black" points="150.25,-23.12 159.92,-18.79 149.66,-16.14 150.25,-23.12"/>
<text text-anchor="middle" x="98" y="-38.8" font-family="Helvetica,Arial,sans-serif" font-size="14.00">0</text>
</g>
</g>
</svg>
