<?xml version="1.0" encoding="UTF-8" standalone="no"?>
<!DOCTYPE svg PUBLIC "-//W3C//DTD SVG 1.1//EN"
 "http://www.w3.org/Graphics/SVG/1.1/DTD/svg11.dtd">
<!-- Generated by graphviz version 2.43.0 (0)
 -->
<!-- Title: MyGraph Pages: 1 -->
<svg width="291pt" height="402pt"
 viewBox="0.00 0.00 291.29 401.80" xmlns="http://www.w3.org/2000/svg" xmlns:xlink="http://www.w3.org/1999/xlink">
<g id="graph0" class="graph" transform="scale(1 1) rotate(0) translate(4 397.8)">
<title>MyGraph</title>
<polygon fill="white" stroke="transparent" points="-4,4 -4,-397.8 287.29,-397.8 287.29,4 -4,4"/>
<!-- 5 -->
<g id="node1" class="node">
<title>5</title>
<ellipse fill="none" stroke="black" cx="98" cy="-342" rx="18" ry="18"/>
<text text-anchor="middle" x="98" y="-338.3" font-family="Helvetica,Arial,sans-serif" font-size="14.00">5</text>
</g>
<!-- 11 -->
<g id="node2" class="node">
<title>11</title>
<ellipse fill="none" stroke="black" cx="180.8" cy="-313" rx="20.6" ry="20.6"/>
<text text-anchor="middle" x="180.8" y="-309.3" font-family="Helvetica,Arial,sans-serif" font-size="14.00">11</text>
</g>
<!-- 5&#45;&gt;11 -->
<g id="edge1" class="edge">
<title>5&#45;&gt;11</title>
<path fill="none" stroke="black" d="M115.35,-336.13C125.65,-332.43 139.24,-327.56 151.28,-323.24"/>
<polygon fill="black" stroke="black" points="152.69,-326.45 160.92,-319.78 150.33,-319.86 152.69,-326.45"/>
<text text-anchor="middle" x="138" y="-332.8" font-family="Helvetica,Arial,sans-serif" font-size="14.00">0</text>
</g>
<!-- 10 -->
<g id="node3" class="node">
<title>10</title>
<ellipse fill="none" stroke="black" cx="180.8" cy="-373" rx="20.6" ry="20.6"/>
<text text-anchor="middle" x="180.8" y="-369.3" font-family="Helvetica,Arial,sans-serif" font-size="14.00">10</text>
</g>
<!-- 5&#45;&gt;10 -->
<g id="edge2" class="edge">
<title>5&#45;&gt;10</title>
<path fill="none" stroke="black" d="M114.96,-348.12C125.41,-352.13 139.36,-357.49 151.64,-362.2"/>
<polygon fill="black" stroke="black" points="150.44,-365.49 161.03,-365.8 152.95,-358.95 150.44,-365.49"/>
<text text-anchor="middle" x="138" y="-361.8" font-family="Helvetica,Arial,sans-serif" font-size="14.00">1</text>
</g>
<!-- &#45;1 -->
<g id="node15" class="node">
<title>&#45;1</title>
<ellipse fill="none" stroke="black" cx="264.44" cy="-196" rx="18.7" ry="18.7"/>
<text text-anchor="middle" x="264.44" y="-192.3" font-family="Helvetica,Arial,sans-serif" font-size="14.00">&#45;1</text>
</g>
<!-- 11&#45;&gt;&#45;1 -->
<g id="edge14" class="edge">
<title>11&#45;&gt;&#45;1</title>
<path fill="none" stroke="black" d="M193.5,-296.24C207.51,-276.16 231.08,-242.38 246.94,-219.65"/>
<polygon fill="black" stroke="black" points="249.95,-221.45 252.81,-211.24 244.21,-217.44 249.95,-221.45"/>
<text text-anchor="middle" x="223.6" y="-261.8" font-family="Helvetica,Arial,sans-serif" font-size="14.00">1</text>
</g>
<!-- 10&#45;&gt;&#45;1 -->
<g id="edge15" class="edge">
<title>10&#45;&gt;&#45;1</title>
<path fill="none" stroke="black" d="M193.67,-356.2C196.43,-351.98 199.24,-347.4 201.6,-343 223.17,-302.63 242.67,-253.1 253.78,-223.07"/>
<polygon fill="black" stroke="black" points="257.07,-224.27 257.22,-213.68 250.49,-221.87 257.07,-224.27"/>
<text text-anchor="middle" x="223.6" y="-306.8" font-family="Helvetica,Arial,sans-serif" font-size="14.00">1</text>
</g>
<!-- 6 -->
<g id="node4" class="node">
<title>6</title>
<ellipse fill="none" stroke="black" cx="98" cy="-288" rx="18" ry="18"/>
<text text-anchor="middle" x="98" y="-284.3" font-family="Helvetica,Arial,sans-serif" font-size="14.00">6</text>
</g>
<!-- 6&#45;&gt;11 -->
<g id="edge3" class="edge">
<title>6&#45;&gt;11</title>
<path fill="none" stroke="black" d="M115.9,-291.32C123.89,-293.04 133.51,-295.35 142,-298 145.34,-299.04 148.79,-300.24 152.2,-301.5"/>
<polygon fill="black" stroke="black" points="150.95,-304.77 161.54,-305.12 153.48,-298.24 150.95,-304.77"/>
<text text-anchor="middle" x="138" y="-301.8" font-family="Helvetica,Arial,sans-serif" font-size="14.00">1</text>
</g>
<!-- 4 -->
<g id="node5" class="node">
<title>4</title>
<ellipse fill="none" stroke="black" cx="98" cy="-234" rx="18" ry="18"/>
<text text-anchor="middle" x="98" y="-230.3" font-family="Helvetica,Arial,sans-serif" font-size="14.00">4</text>
</g>
<!-- 9 -->
<g id="node6" class="node">
<title>9</title>
<ellipse fill="none" stroke="black" cx="180.8" cy="-196" rx="18" ry="18"/>
<text text-anchor="middle" x="180.8" y="-192.3" font-family="Helvetica,Arial,sans-serif" font-size="14.00">9</text>
</g>
<!-- 4&#45;&gt;9 -->
<g id="edge4" class="edge">
<title>4&#45;&gt;9</title>
<path fill="none" stroke="black" d="M114.58,-226.67C126.09,-221.26 142,-213.78 155.22,-207.56"/>
<polygon fill="black" stroke="black" points="156.71,-210.73 164.27,-203.3 153.73,-204.39 156.71,-210.73"/>
<text text-anchor="middle" x="138" y="-220.8" font-family="Helvetica,Arial,sans-serif" font-size="14.00">0</text>
</g>
<!-- 13 -->
<g id="node7" class="node">
<title>13</title>
<ellipse fill="none" stroke="black" cx="180.8" cy="-253" rx="20.6" ry="20.6"/>
<text text-anchor="middle" x="180.8" y="-249.3" font-family="Helvetica,Arial,sans-serif" font-size="14.00">13</text>
</g>
<!-- 4&#45;&gt;13 -->
<g id="edge5" class="edge">
<title>4&#45;&gt;13</title>
<path fill="none" stroke="black" d="M115.74,-237.94C125.75,-240.29 138.75,-243.35 150.43,-246.09"/>
<polygon fill="black" stroke="black" points="149.7,-249.52 160.23,-248.4 151.3,-242.7 149.7,-249.52"/>
<text text-anchor="middle" x="138" y="-247.8" font-family="Helvetica,Arial,sans-serif" font-size="14.00">1</text>
</g>
<!-- 9&#45;&gt;&#45;1 -->
<g id="edge16" class="edge">
<title>9&#45;&gt;&#45;1</title>
<path fill="none" stroke="black" d="M199.11,-196C209.68,-196 223.45,-196 235.53,-196"/>
<polygon fill="black" stroke="black" points="235.59,-199.5 245.59,-196 235.59,-192.5 235.59,-199.5"/>
<text text-anchor="middle" x="223.6" y="-199.8" font-family="Helvetica,Arial,sans-serif" font-size="14.00">1</text>
</g>
<!-- 13&#45;&gt;&#45;1 -->
<g id="edge12" class="edge">
<title>13&#45;&gt;&#45;1</title>
<path fill="none" stroke="black" d="M198.32,-241.47C210.4,-233.03 226.94,-221.48 240.33,-212.14"/>
<polygon fill="black" stroke="black" points="242.4,-214.96 248.59,-206.37 238.39,-209.22 242.4,-214.96"/>
<text text-anchor="middle" x="223.6" y="-229.8" font-family="Helvetica,Arial,sans-serif" font-size="14.00">1</text>
</g>
<!-- 7 -->
<g id="node8" class="node">
<title>7</title>
<ellipse fill="none" stroke="black" cx="98" cy="-72" rx="18" ry="18"/>
<text text-anchor="middle" x="98" y="-68.3" font-family="Helvetica,Arial,sans-serif" font-size="14.00">7</text>
</g>
<!-- 14 -->
<g id="node9" class="node">
<title>14</title>
<ellipse fill="none" stroke="black" cx="180.8" cy="-85" rx="20.6" ry="20.6"/>
<text text-anchor="middle" x="180.8" y="-81.3" font-family="Helvetica,Arial,sans-serif" font-size="14.00">14</text>
</g>
<!-- 7&#45;&gt;14 -->
<g id="edge6" class="edge">
<title>7&#45;&gt;14</title>
<path fill="none" stroke="black" d="M115.87,-69.4C123.86,-68.63 133.49,-68.37 142,-70 145.33,-70.64 148.74,-71.56 152.08,-72.64"/>
<polygon fill="black" stroke="black" points="151.17,-76.04 161.76,-76.24 153.6,-69.48 151.17,-76.04"/>
<text text-anchor="middle" x="138" y="-73.8" font-family="Helvetica,Arial,sans-serif" font-size="14.00">1</text>
</g>
<!-- 14&#45;&gt;&#45;1 -->
<g id="edge11" class="edge">
<title>14&#45;&gt;&#45;1</title>
<path fill="none" stroke="black" d="M193.85,-101.38C207.72,-120.25 230.63,-151.39 246.35,-172.76"/>
<polygon fill="black" stroke="black" points="243.65,-175 252.4,-180.98 249.29,-170.85 243.65,-175"/>
<text text-anchor="middle" x="223.6" y="-150.8" font-family="Helvetica,Arial,sans-serif" font-size="14.00">1</text>
</g>
<!-- 3 -->
<g id="node10" class="node">
<title>3</title>
<ellipse fill="none" stroke="black" cx="98" cy="-18" rx="18" ry="18"/>
<text text-anchor="middle" x="98" y="-14.3" font-family="Helvetica,Arial,sans-serif" font-size="14.00">3</text>
</g>
<!-- 12 -->
<g id="node11" class="node">
<title>12</title>
<ellipse fill="none" stroke="black" cx="180.8" cy="-24" rx="20.6" ry="20.6"/>
<text text-anchor="middle" x="180.8" y="-20.3" font-family="Helvetica,Arial,sans-serif" font-size="14.00">12</text>
</g>
<!-- 3&#45;&gt;12 -->
<g id="edge7" class="edge">
<title>3&#45;&gt;12</title>
<path fill="none" stroke="black" d="M116.14,-19.27C125.92,-20 138.48,-20.93 149.84,-21.78"/>
<polygon fill="black" stroke="black" points="149.61,-25.27 159.84,-22.52 150.13,-18.29 149.61,-25.27"/>
<text text-anchor="middle" x="138" y="-25.8" font-family="Helvetica,Arial,sans-serif" font-size="14.00">1</text>
</g>
<!-- 12&#45;&gt;&#45;1 -->
<g id="edge13" class="edge">
<title>12&#45;&gt;&#45;1</title>
<path fill="none" stroke="black" d="M193.18,-40.77C196.07,-45.31 199.07,-50.27 201.6,-55 222.22,-93.59 241.76,-140.48 253.17,-169.28"/>
<polygon fill="black" stroke="black" points="249.94,-170.64 256.85,-178.67 256.46,-168.08 249.94,-170.64"/>
<text text-anchor="middle" x="223.6" y="-112.8" font-family="Helvetica,Arial,sans-serif" font-size="14.00">1</text>
</g>
<!-- 2 -->
<g id="node12" class="node">
<title>2</title>
<ellipse fill="none" stroke="black" cx="98" cy="-180" rx="18" ry="18"/>
<text text-anchor="middle" x="98" y="-176.3" font-family="Helvetica,Arial,sans-serif" font-size="14.00">2</text>
</g>
<!-- 2&#45;&gt;9 -->
<g id="edge8" class="edge">
<title>2&#45;&gt;9</title>
<path fill="none" stroke="black" d="M116.28,-180.76C124.18,-181.32 133.62,-182.3 142,-184 145.8,-184.77 149.76,-185.78 153.62,-186.89"/>
<polygon fill="black" stroke="black" points="152.85,-190.32 163.44,-189.96 154.94,-183.64 152.85,-190.32"/>
<text text-anchor="middle" x="138" y="-187.8" font-family="Helvetica,Arial,sans-serif" font-size="14.00">1</text>
</g>
<!-- 8 -->
<g id="node13" class="node">
<title>8</title>
<ellipse fill="none" stroke="black" cx="180.8" cy="-142" rx="18" ry="18"/>
<text text-anchor="middle" x="180.8" y="-138.3" font-family="Helvetica,Arial,sans-serif" font-size="14.00">8</text>
</g>
<!-- 2&#45;&gt;8 -->
<g id="edge9" class="edge">
<title>2&#45;&gt;8</title>
<path fill="none" stroke="black" d="M114.64,-172.31C120.68,-169.37 127.65,-166 134,-163 140.7,-159.84 147.97,-156.47 154.71,-153.38"/>
<polygon fill="black" stroke="black" points="156.43,-156.44 164.07,-149.11 153.52,-150.08 156.43,-156.44"/>
<text text-anchor="middle" x="138" y="-166.8" font-family="Helvetica,Arial,sans-serif" font-size="14.00">0</text>
</g>
<!-- 8&#45;&gt;&#45;1 -->
<g id="edge17" class="edge">
<title>8&#45;&gt;&#45;1</title>
<path fill="none" stroke="black" d="M196.39,-151.65C208.44,-159.62 225.75,-171.07 239.77,-180.34"/>
<polygon fill="black" stroke="black" points="238.15,-183.47 248.42,-186.06 242.01,-177.63 238.15,-183.47"/>
<text text-anchor="middle" x="223.6" y="-175.8" font-family="Helvetica,Arial,sans-serif" font-size="14.00">1</text>
</g>
<!-- 1 -->
<g id="node14" class="node">
<title>1</title>
<ellipse fill="none" stroke="black" cx="98" cy="-126" rx="18" ry="18"/>
<text text-anchor="middle" x="98" y="-122.3" font-family="Helvetica,Arial,sans-serif" font-size="14.00">1</text>
</g>
<!-- 1&#45;&gt;8 -->
<g id="edge10" class="edge">
<title>1&#45;&gt;8</title>
<path fill="none" stroke="black" d="M112.47,-114.73C120.91,-109.08 132.03,-104.17 142,-108 149.25,-110.78 155.98,-115.67 161.7,-120.88"/>
<polygon fill="black" stroke="black" points="159.28,-123.41 168.81,-128.03 164.24,-118.48 159.28,-123.41"/>
<text text-anchor="middle" x="138" y="-111.8" font-family="Helvetica,Arial,sans-serif" font-size="14.00">1</text>
</g>
<!-- 0 -->
<g id="node16" class="node">
<title>0</title>
<ellipse fill="none" stroke="black" cx="18" cy="-180" rx="18" ry="18"/>
<text text-anchor="middle" x="18" y="-176.3" font-family="Helvetica,Arial,sans-serif" font-size="14.00">0</text>
</g>
<!-- 0&#45;&gt;5 -->
<g id="edge20" class="edge">
<title>0&#45;&gt;5</title>
<path fill="none" stroke="black" d="M25.62,-196.56C36.12,-222.37 57.72,-273.54 80,-315 80.62,-316.15 81.27,-317.32 81.94,-318.5"/>
<polygon fill="black" stroke="black" points="79.12,-320.6 87.27,-327.36 85.12,-316.99 79.12,-320.6"/>
<text text-anchor="middle" x="58" y="-281.8" font-family="Helvetica,Arial,sans-serif" font-size="14.00">1</text>
</g>
<!-- 0&#45;&gt;6 -->
<g id="edge19" class="edge">
<title>0&#45;&gt;6</title>
<path fill="none" stroke="black" d="M29.2,-194.12C42.34,-212.31 65.33,-244.15 80.85,-265.64"/>
<polygon fill="black" stroke="black" points="78.11,-267.82 86.8,-273.88 83.78,-263.72 78.11,-267.82"/>
<text text-anchor="middle" x="58" y="-240.8" font-family="Helvetica,Arial,sans-serif" font-size="14.00">1</text>
</g>
<!-- 0&#45;&gt;4 -->
<g id="edge21" class="edge">
<title>0&#45;&gt;4</title>
<path fill="none" stroke="black" d="M33.31,-189.9C44.74,-197.82 60.99,-209.07 74.21,-218.22"/>
<polygon fill="black" stroke="black" points="72.57,-221.34 82.78,-224.16 76.55,-215.59 72.57,-221.34"/>
<text text-anchor="middle" x="58" y="-211.8" font-family="Helvetica,Arial,sans-serif" font-size="14.00">1</text>
</g>
<!-- 0&#45;&gt;7 -->
<g id="edge18" class="edge">
<title>0&#45;&gt;7</title>
<path fill="none" stroke="black" d="M29.2,-165.88C42.34,-147.69 65.33,-115.85 80.85,-94.36"/>
<polygon fill="black" stroke="black" points="83.78,-96.28 86.8,-86.12 78.11,-92.18 83.78,-96.28"/>
<text text-anchor="middle" x="58" y="-132.8" font-family="Helvetica,Arial,sans-serif" font-size="14.00">1</text>
</g>
<!-- 0&#45;&gt;3 -->
<g id="edge22" class="edge">
<title>0&#45;&gt;3</title>
<path fill="none" stroke="black" d="M25.62,-163.44C36.12,-137.63 57.72,-86.46 80,-45 80.62,-43.85 81.27,-42.68 81.94,-41.5"/>
<polygon fill="black" stroke="black" points="85.12,-43.01 87.27,-32.64 79.12,-39.4 85.12,-43.01"/>
<text text-anchor="middle" x="58" y="-100.8" font-family="Helvetica,Arial,sans-serif" font-size="14.00">1</text>
</g>
<!-- 0&#45;&gt;2 -->
<g id="edge23" class="edge">
<title>0&#45;&gt;2</title>
<path fill="none" stroke="black" d="M36.31,-180C46.11,-180 58.58,-180 69.67,-180"/>
<polygon fill="black" stroke="black" points="69.74,-183.5 79.74,-180 69.74,-176.5 69.74,-183.5"/>
<text text-anchor="middle" x="58" y="-183.8" font-family="Helvetica,Arial,sans-serif" font-size="14.00">1</text>
</g>
<!-- 0&#45;&gt;1 -->
<g id="edge24" class="edge">
<title>0&#45;&gt;1</title>
<path fill="none" stroke="black" d="M33.31,-170.1C44.74,-162.18 60.99,-150.93 74.21,-141.78"/>
<polygon fill="black" stroke="black" points="76.55,-144.41 82.78,-135.84 72.57,-138.66 76.55,-144.41"/>
<text text-anchor="middle" x="58" y="-157.8" font-family="Helvetica,Arial,sans-serif" font-size="14.00">1</text>
</g>
</g>
</svg>
