<?xml version="1.0" encoding="UTF-8" standalone="no"?>
<!DOCTYPE svg PUBLIC "-//W3C//DTD SVG 1.1//EN"
 "http://www.w3.org/Graphics/SVG/1.1/DTD/svg11.dtd">
<!-- Generated by graphviz version 2.43.0 (0)
 -->
<!-- Title: MyGraph Pages: 1 -->
<svg width="380pt" height="154pt"
 viewBox="0.00 0.00 380.00 154.00" xmlns="http://www.w3.org/2000/svg" xmlns:xlink="http://www.w3.org/1999/xlink">
<g id="graph0" class="graph" transform="scale(1 1) rotate(0) translate(4 150)">
<title>MyGraph</title>
<polygon fill="white" stroke="transparent" points="-4,4 -4,-150 376,-150 376,4 -4,4"/>
<!-- 0 -->
<g id="node1" class="node">
<title>0</title>
<ellipse fill="none" stroke="black" cx="18" cy="-77" rx="18" ry="18"/>
<text text-anchor="middle" x="18" y="-73.3" font-family="Helvetica,Arial,sans-serif" font-size="14.00">0</text>
</g>
<!-- 2 -->
<g id="node2" class="node">
<title>2</title>
<ellipse fill="none" stroke="black" cx="186" cy="-128" rx="18" ry="18"/>
<text text-anchor="middle" x="186" y="-124.3" font-family="Helvetica,Arial,sans-serif" font-size="14.00">2</text>
</g>
<!-- 0&#45;&gt;2 -->
<g id="edge1" class="edge">
<title>0&#45;&gt;2</title>
<path fill="none" stroke="black" d="M34.01,-86C40.08,-89.42 47.24,-93.16 54,-96 91.72,-111.84 101.96,-114.6 142,-123 146.98,-124.04 152.33,-124.89 157.51,-125.56"/>
<polygon fill="black" stroke="black" points="157.4,-129.07 167.73,-126.71 158.18,-122.11 157.4,-129.07"/>
<text text-anchor="middle" x="106" y="-121.8" font-family="Helvetica,Arial,sans-serif" font-size="14.00">8</text>
</g>
<!-- 3 -->
<g id="node3" class="node">
<title>3</title>
<ellipse fill="none" stroke="black" cx="106" cy="-77" rx="18" ry="18"/>
<text text-anchor="middle" x="106" y="-73.3" font-family="Helvetica,Arial,sans-serif" font-size="14.00">3</text>
</g>
<!-- 0&#45;&gt;3 -->
<g id="edge2" class="edge">
<title>0&#45;&gt;3</title>
<path fill="none" stroke="black" d="M36.4,-77C48.25,-77 64.18,-77 77.71,-77"/>
<polygon fill="black" stroke="black" points="77.92,-80.5 87.92,-77 77.92,-73.5 77.92,-80.5"/>
<text text-anchor="middle" x="62" y="-80.8" font-family="Helvetica,Arial,sans-serif" font-size="14.00">10</text>
</g>
<!-- 1 -->
<g id="node4" class="node">
<title>1</title>
<ellipse fill="none" stroke="black" cx="186" cy="-18" rx="18" ry="18"/>
<text text-anchor="middle" x="186" y="-14.3" font-family="Helvetica,Arial,sans-serif" font-size="14.00">1</text>
</g>
<!-- 0&#45;&gt;1 -->
<g id="edge3" class="edge">
<title>0&#45;&gt;1</title>
<path fill="none" stroke="black" d="M32.73,-66.5C46.11,-56.8 67.4,-42.76 88,-35 110.68,-26.46 137.98,-22.16 157.84,-20.03"/>
<polygon fill="black" stroke="black" points="158.4,-23.49 168.02,-19.06 157.74,-16.53 158.4,-23.49"/>
<text text-anchor="middle" x="106" y="-38.8" font-family="Helvetica,Arial,sans-serif" font-size="14.00">7</text>
</g>
<!-- 4 -->
<g id="node5" class="node">
<title>4</title>
<ellipse fill="none" stroke="black" cx="266" cy="-71" rx="18" ry="18"/>
<text text-anchor="middle" x="266" y="-67.3" font-family="Helvetica,Arial,sans-serif" font-size="14.00">4</text>
</g>
<!-- 2&#45;&gt;4 -->
<g id="edge4" class="edge">
<title>2&#45;&gt;4</title>
<path fill="none" stroke="black" d="M200.94,-117.81C212.52,-109.35 229.2,-97.16 242.64,-87.34"/>
<polygon fill="black" stroke="black" points="244.9,-90.02 250.91,-81.29 240.77,-84.37 244.9,-90.02"/>
<text text-anchor="middle" x="226" y="-104.8" font-family="Helvetica,Arial,sans-serif" font-size="14.00">9</text>
</g>
<!-- 3&#45;&gt;2 -->
<g id="edge6" class="edge">
<title>3&#45;&gt;2</title>
<path fill="none" stroke="black" d="M121.67,-86.59C133,-94 148.89,-104.39 161.92,-112.91"/>
<polygon fill="black" stroke="black" points="160.11,-115.91 170.39,-118.45 163.94,-110.05 160.11,-115.91"/>
<text text-anchor="middle" x="146" y="-107.8" font-family="Helvetica,Arial,sans-serif" font-size="14.00">1</text>
</g>
<!-- 3&#45;&gt;1 -->
<g id="edge7" class="edge">
<title>3&#45;&gt;1</title>
<path fill="none" stroke="black" d="M120.09,-65.72C126.58,-60.24 134.59,-53.64 142,-48 148.37,-43.15 155.45,-38.09 161.99,-33.53"/>
<polygon fill="black" stroke="black" points="164.2,-36.26 170.45,-27.71 160.23,-30.49 164.2,-36.26"/>
<text text-anchor="middle" x="146" y="-51.8" font-family="Helvetica,Arial,sans-serif" font-size="14.00">4</text>
</g>
<!-- 3&#45;&gt;4 -->
<g id="edge5" class="edge">
<title>3&#45;&gt;4</title>
<path fill="none" stroke="black" d="M124.21,-76.35C151.52,-75.31 205.01,-73.28 237.62,-72.04"/>
<polygon fill="black" stroke="black" points="237.95,-75.53 247.81,-71.65 237.69,-68.53 237.95,-75.53"/>
<text text-anchor="middle" x="186" y="-77.8" font-family="Helvetica,Arial,sans-serif" font-size="14.00">5</text>
</g>
<!-- 1&#45;&gt;4 -->
<g id="edge8" class="edge">
<title>1&#45;&gt;4</title>
<path fill="none" stroke="black" d="M201.31,-27.72C212.74,-35.49 228.99,-46.53 242.21,-55.51"/>
<polygon fill="black" stroke="black" points="240.55,-58.62 250.78,-61.34 244.48,-52.83 240.55,-58.62"/>
<text text-anchor="middle" x="226" y="-49.8" font-family="Helvetica,Arial,sans-serif" font-size="14.00">0</text>
</g>
<!-- 5 -->
<g id="node6" class="node">
<title>5</title>
<ellipse fill="none" stroke="black" cx="354" cy="-30" rx="18" ry="18"/>
<text text-anchor="middle" x="354" y="-26.3" font-family="Helvetica,Arial,sans-serif" font-size="14.00">5</text>
</g>
<!-- 1&#45;&gt;5 -->
<g id="edge9" class="edge">
<title>1&#45;&gt;5</title>
<path fill="none" stroke="black" d="M204.14,-19.24C232.84,-21.31 290.87,-25.51 325.39,-28"/>
<polygon fill="black" stroke="black" points="325.48,-31.52 335.7,-28.75 325.98,-24.54 325.48,-31.52"/>
<text text-anchor="middle" x="266" y="-28.8" font-family="Helvetica,Arial,sans-serif" font-size="14.00">11</text>
</g>
<!-- 4&#45;&gt;5 -->
<g id="edge10" class="edge">
<title>4&#45;&gt;5</title>
<path fill="none" stroke="black" d="M282.77,-63.48C295.5,-57.41 313.64,-48.77 328.29,-41.78"/>
<polygon fill="black" stroke="black" points="329.81,-44.94 337.33,-37.47 326.79,-38.62 329.81,-44.94"/>
<text text-anchor="middle" x="310" y="-57.8" font-family="Helvetica,Arial,sans-serif" font-size="14.00">14</text>
</g>
</g>
</svg>
