<?xml version="1.0" encoding="UTF-8" standalone="no"?>
<!DOCTYPE svg PUBLIC "-//W3C//DTD SVG 1.1//EN"
 "http://www.w3.org/Graphics/SVG/1.1/DTD/svg11.dtd">
<!-- Generated by graphviz version 2.43.0 (0)
 -->
<!-- Title: MyGraph Pages: 1 -->
<svg width="697pt" height="892pt"
 viewBox="0.00 0.00 696.89 892.00" xmlns="http://www.w3.org/2000/svg" xmlns:xlink="http://www.w3.org/1999/xlink">
<g id="graph0" class="graph" transform="scale(1 1) rotate(0) translate(4 888)">
<title>MyGraph</title>
<polygon fill="white" stroke="transparent" points="-4,4 -4,-888 692.89,-888 692.89,4 -4,4"/>
<!-- 7 -->
<g id="node1" class="node">
<title>7</title>
<ellipse fill="none" stroke="black" cx="18" cy="-752" rx="18" ry="18"/>
<text text-anchor="middle" x="18" y="-748.3" font-family="Helvetica,Arial,sans-serif" font-size="14.00">7</text>
</g>
<!-- 0 -->
<g id="node2" class="node">
<title>0</title>
<ellipse fill="none" stroke="black" cx="98" cy="-298" rx="18" ry="18"/>
<text text-anchor="middle" x="98" y="-294.3" font-family="Helvetica,Arial,sans-serif" font-size="14.00">0</text>
</g>
<!-- 7&#45;&gt;0 -->
<g id="edge1" class="edge">
<title>7&#45;&gt;0</title>
<path fill="none" stroke="black" d="M22.92,-734.64C30.93,-698.78 49.5,-613.86 62,-542 75.58,-463.94 87.82,-371.15 93.56,-325.78"/>
<polygon fill="black" stroke="black" points="97.04,-326.17 94.81,-315.81 90.09,-325.3 97.04,-326.17"/>
<text text-anchor="middle" x="58" y="-586.8" font-family="Helvetica,Arial,sans-serif" font-size="14.00">1</text>
</g>
<!-- 14 -->
<g id="node3" class="node">
<title>14</title>
<ellipse fill="none" stroke="black" cx="422.49" cy="-741" rx="20.6" ry="20.6"/>
<text text-anchor="middle" x="422.49" y="-737.3" font-family="Helvetica,Arial,sans-serif" font-size="14.00">14</text>
</g>
<!-- 7&#45;&gt;14 -->
<g id="edge2" class="edge">
<title>7&#45;&gt;14</title>
<path fill="none" stroke="black" d="M26.18,-768.37C37.57,-791.51 62.11,-831 97,-831 97,-831 97,-831 339.85,-831 373.67,-831 397.15,-795.71 409.98,-769.32"/>
<polygon fill="black" stroke="black" points="413.23,-770.63 414.22,-760.09 406.86,-767.71 413.23,-770.63"/>
<text text-anchor="middle" x="218" y="-834.8" font-family="Helvetica,Arial,sans-serif" font-size="14.00">0</text>
</g>
<!-- 0&#45;&gt;7 -->
<g id="edge29" class="edge">
<title>0&#45;&gt;7</title>
<path fill="none" stroke="black" d="M93.43,-315.46C85.77,-353.24 67.34,-445.39 54,-523 41.56,-595.35 29.07,-680.95 22.92,-724.12"/>
<polygon fill="black" stroke="black" points="19.44,-723.76 21.5,-734.15 26.37,-724.74 19.44,-723.76"/>
<text text-anchor="middle" x="58" y="-526.8" font-family="Helvetica,Arial,sans-serif" font-size="14.00">0</text>
</g>
<!-- 3 -->
<g id="node5" class="node">
<title>3</title>
<ellipse fill="none" stroke="black" cx="505.29" cy="-773" rx="18" ry="18"/>
<text text-anchor="middle" x="505.29" y="-769.3" font-family="Helvetica,Arial,sans-serif" font-size="14.00">3</text>
</g>
<!-- 0&#45;&gt;3 -->
<g id="edge31" class="edge">
<title>0&#45;&gt;3</title>
<path fill="none" stroke="black" d="M101.17,-315.87C106.33,-357.84 119.94,-466.01 134,-556 154.9,-689.8 112.36,-760.51 214,-850 242.4,-875.01 259.16,-869 297,-869 297,-869 297,-869 423.49,-869 459.93,-869 483.25,-828.01 495.04,-799.6"/>
<polygon fill="black" stroke="black" points="498.34,-800.75 498.73,-790.16 491.82,-798.2 498.34,-800.75"/>
<text text-anchor="middle" x="298" y="-872.8" font-family="Helvetica,Arial,sans-serif" font-size="14.00">0</text>
</g>
<!-- 2 -->
<g id="node7" class="node">
<title>2</title>
<ellipse fill="none" stroke="black" cx="505.29" cy="-276" rx="18" ry="18"/>
<text text-anchor="middle" x="505.29" y="-272.3" font-family="Helvetica,Arial,sans-serif" font-size="14.00">2</text>
</g>
<!-- 0&#45;&gt;2 -->
<g id="edge32" class="edge">
<title>0&#45;&gt;2</title>
<path fill="none" stroke="black" d="M100.31,-280.1C104.25,-241.11 119.52,-152 177,-152 177,-152 177,-152 380.7,-152 425.48,-152 439.99,-166.13 469.29,-200 484.47,-217.55 477.06,-228.18 487.29,-249 487.87,-250.17 488.49,-251.36 489.13,-252.55"/>
<polygon fill="black" stroke="black" points="486.28,-254.62 494.36,-261.47 492.32,-251.07 486.28,-254.62"/>
<text text-anchor="middle" x="298" y="-155.8" font-family="Helvetica,Arial,sans-serif" font-size="14.00">0</text>
</g>
<!-- 4 -->
<g id="node10" class="node">
<title>4</title>
<ellipse fill="none" stroke="black" cx="505.29" cy="-222" rx="18" ry="18"/>
<text text-anchor="middle" x="505.29" y="-218.3" font-family="Helvetica,Arial,sans-serif" font-size="14.00">4</text>
</g>
<!-- 0&#45;&gt;4 -->
<g id="edge30" class="edge">
<title>0&#45;&gt;4</title>
<path fill="none" stroke="black" d="M98.58,-279.68C98.57,-233.14 105.53,-114 177,-114 177,-114 177,-114 423.49,-114 463.85,-114 486.49,-162.95 496.98,-194.94"/>
<polygon fill="black" stroke="black" points="493.68,-196.12 499.96,-204.65 500.37,-194.06 493.68,-196.12"/>
<text text-anchor="middle" x="298" y="-117.8" font-family="Helvetica,Arial,sans-serif" font-size="14.00">0</text>
</g>
<!-- 6 -->
<g id="node12" class="node">
<title>6</title>
<ellipse fill="none" stroke="black" cx="670.89" cy="-54" rx="18" ry="18"/>
<text text-anchor="middle" x="670.89" y="-50.3" font-family="Helvetica,Arial,sans-serif" font-size="14.00">6</text>
</g>
<!-- 0&#45;&gt;6 -->
<g id="edge33" class="edge">
<title>0&#45;&gt;6</title>
<path fill="none" stroke="black" d="M98.66,-279.97C98.63,-242.09 102.23,-152.27 134,-86 146.38,-60.17 148.36,-38 177,-38 177,-38 177,-38 589.09,-38 607.45,-38 627.71,-42.02 643.36,-46.04"/>
<polygon fill="black" stroke="black" points="642.8,-49.51 653.37,-48.76 644.64,-42.76 642.8,-49.51"/>
<text text-anchor="middle" x="379.7" y="-41.8" font-family="Helvetica,Arial,sans-serif" font-size="14.00">0</text>
</g>
<!-- 5 -->
<g id="node14" class="node">
<title>5</title>
<ellipse fill="none" stroke="black" cx="505.29" cy="-492" rx="18" ry="18"/>
<text text-anchor="middle" x="505.29" y="-488.3" font-family="Helvetica,Arial,sans-serif" font-size="14.00">5</text>
</g>
<!-- 0&#45;&gt;5 -->
<g id="edge35" class="edge">
<title>0&#45;&gt;5</title>
<path fill="none" stroke="black" d="M113.24,-288.23C128.35,-278.81 153.29,-266 177,-266 177,-266 177,-266 339.85,-266 362.5,-266 368.07,-275.6 383.7,-292 395.49,-304.38 393.38,-311.06 401.7,-326 427.23,-371.88 433.4,-383.52 461.29,-428 469.91,-441.74 480,-456.8 488.24,-468.86"/>
<polygon fill="black" stroke="black" points="485.57,-471.17 494.12,-477.43 491.34,-467.2 485.57,-471.17"/>
<text text-anchor="middle" x="298" y="-269.8" font-family="Helvetica,Arial,sans-serif" font-size="14.00">0</text>
</g>
<!-- 1 -->
<g id="node15" class="node">
<title>1</title>
<ellipse fill="none" stroke="black" cx="178" cy="-516" rx="18" ry="18"/>
<text text-anchor="middle" x="178" y="-512.3" font-family="Helvetica,Arial,sans-serif" font-size="14.00">1</text>
</g>
<!-- 0&#45;&gt;1 -->
<g id="edge34" class="edge">
<title>0&#45;&gt;1</title>
<path fill="none" stroke="black" d="M99.92,-316.04C102.51,-359.98 111.19,-470.98 134,-499 138.19,-504.15 144.16,-507.74 150.32,-510.25"/>
<polygon fill="black" stroke="black" points="149.34,-513.61 159.94,-513.37 151.5,-506.96 149.34,-513.61"/>
<text text-anchor="middle" x="138" y="-509.8" font-family="Helvetica,Arial,sans-serif" font-size="14.00">0</text>
</g>
<!-- 14&#45;&gt;7 -->
<g id="edge3" class="edge">
<title>14&#45;&gt;7</title>
<path fill="none" stroke="black" d="M401.42,-741.55C334.98,-743.36 122.12,-749.18 46.21,-751.26"/>
<polygon fill="black" stroke="black" points="45.94,-747.76 36.04,-751.53 46.13,-754.76 45.94,-747.76"/>
<text text-anchor="middle" x="218" y="-750.8" font-family="Helvetica,Arial,sans-serif" font-size="14.00">1</text>
</g>
<!-- &#45;1 -->
<g id="node4" class="node">
<title>&#45;1</title>
<ellipse fill="none" stroke="black" cx="338.85" cy="-538" rx="18.7" ry="18.7"/>
<text text-anchor="middle" x="338.85" y="-534.3" font-family="Helvetica,Arial,sans-serif" font-size="14.00">&#45;1</text>
</g>
<!-- 14&#45;&gt;&#45;1 -->
<g id="edge4" class="edge">
<title>14&#45;&gt;&#45;1</title>
<path fill="none" stroke="black" d="M409.3,-724.67C399.1,-710.36 384.8,-688.68 375.7,-668 360.96,-634.52 350.86,-593.48 345.22,-566.58"/>
<polygon fill="black" stroke="black" points="348.63,-565.77 343.21,-556.66 341.77,-567.16 348.63,-565.77"/>
<text text-anchor="middle" x="379.7" y="-686.8" font-family="Helvetica,Arial,sans-serif" font-size="14.00">0</text>
</g>
<!-- &#45;1&#45;&gt;14 -->
<g id="edge41" class="edge">
<title>&#45;1&#45;&gt;14</title>
<path fill="none" stroke="black" d="M340.14,-556.88C341.42,-588.95 347.59,-655.14 375.7,-702 380.83,-710.55 388.5,-718.15 396.1,-724.31"/>
<polygon fill="black" stroke="black" points="394.11,-727.2 404.21,-730.42 398.33,-721.61 394.11,-727.2"/>
<text text-anchor="middle" x="379.7" y="-716.8" font-family="Helvetica,Arial,sans-serif" font-size="14.00">1</text>
</g>
<!-- 12 -->
<g id="node6" class="node">
<title>12</title>
<ellipse fill="none" stroke="black" cx="422.49" cy="-675" rx="20.6" ry="20.6"/>
<text text-anchor="middle" x="422.49" y="-671.3" font-family="Helvetica,Arial,sans-serif" font-size="14.00">12</text>
</g>
<!-- &#45;1&#45;&gt;12 -->
<g id="edge44" class="edge">
<title>&#45;1&#45;&gt;12</title>
<path fill="none" stroke="black" d="M348.62,-554.17C355.74,-567.19 366.14,-585.9 375.7,-602 385.09,-617.83 396.03,-635.31 404.87,-649.19"/>
<polygon fill="black" stroke="black" points="402,-651.2 410.33,-657.74 407.9,-647.43 402,-651.2"/>
<text text-anchor="middle" x="379.7" y="-618.8" font-family="Helvetica,Arial,sans-serif" font-size="14.00">1</text>
</g>
<!-- 8 -->
<g id="node8" class="node">
<title>8</title>
<ellipse fill="none" stroke="black" cx="258" cy="-503" rx="18" ry="18"/>
<text text-anchor="middle" x="258" y="-499.3" font-family="Helvetica,Arial,sans-serif" font-size="14.00">8</text>
</g>
<!-- &#45;1&#45;&gt;8 -->
<g id="edge46" class="edge">
<title>&#45;1&#45;&gt;8</title>
<path fill="none" stroke="black" d="M321.37,-530.69C310.61,-525.91 296.34,-519.57 284.16,-514.17"/>
<polygon fill="black" stroke="black" points="285.52,-510.94 274.96,-510.08 282.68,-517.34 285.52,-510.94"/>
<text text-anchor="middle" x="298" y="-525.8" font-family="Helvetica,Arial,sans-serif" font-size="14.00">1</text>
</g>
<!-- 9 -->
<g id="node9" class="node">
<title>9</title>
<ellipse fill="none" stroke="black" cx="422.49" cy="-299" rx="18" ry="18"/>
<text text-anchor="middle" x="422.49" y="-295.3" font-family="Helvetica,Arial,sans-serif" font-size="14.00">9</text>
</g>
<!-- &#45;1&#45;&gt;9 -->
<g id="edge43" class="edge">
<title>&#45;1&#45;&gt;9</title>
<path fill="none" stroke="black" d="M339.14,-518.93C338.6,-481.6 341.61,-397.34 375.7,-338 381.1,-328.59 389.66,-320.39 397.93,-313.98"/>
<polygon fill="black" stroke="black" points="400.22,-316.64 406.29,-307.96 396.13,-310.96 400.22,-316.64"/>
<text text-anchor="middle" x="379.7" y="-341.8" font-family="Helvetica,Arial,sans-serif" font-size="14.00">1</text>
</g>
<!-- 13 -->
<g id="node11" class="node">
<title>13</title>
<ellipse fill="none" stroke="black" cx="588.09" cy="-349" rx="20.6" ry="20.6"/>
<text text-anchor="middle" x="588.09" y="-345.3" font-family="Helvetica,Arial,sans-serif" font-size="14.00">13</text>
</g>
<!-- &#45;1&#45;&gt;13 -->
<g id="edge45" class="edge">
<title>&#45;1&#45;&gt;13</title>
<path fill="none" stroke="black" d="M350.5,-522.82C357.18,-513.89 366.27,-502.68 375.7,-494 435.96,-438.51 518.86,-387.85 560.68,-363.76"/>
<polygon fill="black" stroke="black" points="562.49,-366.76 569.44,-358.76 559.02,-360.68 562.49,-366.76"/>
<text text-anchor="middle" x="465.29" y="-429.8" font-family="Helvetica,Arial,sans-serif" font-size="14.00">1</text>
</g>
<!-- 11 -->
<g id="node13" class="node">
<title>11</title>
<ellipse fill="none" stroke="black" cx="588.09" cy="-492" rx="20.6" ry="20.6"/>
<text text-anchor="middle" x="588.09" y="-488.3" font-family="Helvetica,Arial,sans-serif" font-size="14.00">11</text>
</g>
<!-- &#45;1&#45;&gt;11 -->
<g id="edge42" class="edge">
<title>&#45;1&#45;&gt;11</title>
<path fill="none" stroke="black" d="M352.66,-551.48C359.04,-557.42 367.19,-563.96 375.7,-568 413.31,-585.86 428.53,-580.46 469.29,-572 508.41,-563.88 519.48,-557.59 549.29,-531 555.1,-525.82 561.09,-519.93 566.54,-514.32"/>
<polygon fill="black" stroke="black" points="569.2,-516.6 573.57,-506.95 564.14,-511.77 569.2,-516.6"/>
<text text-anchor="middle" x="465.29" y="-577.8" font-family="Helvetica,Arial,sans-serif" font-size="14.00">1</text>
</g>
<!-- 10 -->
<g id="node16" class="node">
<title>10</title>
<ellipse fill="none" stroke="black" cx="422.49" cy="-527" rx="20.6" ry="20.6"/>
<text text-anchor="middle" x="422.49" y="-523.3" font-family="Helvetica,Arial,sans-serif" font-size="14.00">10</text>
</g>
<!-- &#45;1&#45;&gt;10 -->
<g id="edge47" class="edge">
<title>&#45;1&#45;&gt;10</title>
<path fill="none" stroke="black" d="M357.56,-535.61C367.55,-534.27 380.28,-532.55 391.75,-531.01"/>
<polygon fill="black" stroke="black" points="392.37,-534.46 401.81,-529.65 391.43,-527.52 392.37,-534.46"/>
<text text-anchor="middle" x="379.7" y="-537.8" font-family="Helvetica,Arial,sans-serif" font-size="14.00">1</text>
</g>
<!-- 3&#45;&gt;0 -->
<g id="edge5" class="edge">
<title>3&#45;&gt;0</title>
<path fill="none" stroke="black" d="M488.18,-779.44C472.08,-785.28 446.47,-793 423.49,-793 297,-793 297,-793 297,-793 258.21,-793 241.51,-793.35 214,-766 173.98,-726.22 147.23,-579.86 134,-525 116.93,-454.25 106.41,-368.98 101.78,-325.87"/>
<polygon fill="black" stroke="black" points="105.25,-325.44 100.72,-315.86 98.29,-326.17 105.25,-325.44"/>
<text text-anchor="middle" x="298" y="-797.8" font-family="Helvetica,Arial,sans-serif" font-size="14.00">1</text>
</g>
<!-- 3&#45;&gt;12 -->
<g id="edge6" class="edge">
<title>3&#45;&gt;12</title>
<path fill="none" stroke="black" d="M493.16,-759.5C480.25,-743.84 458.74,-717.74 443.02,-698.69"/>
<polygon fill="black" stroke="black" points="445.54,-696.23 436.48,-690.75 440.14,-700.69 445.54,-696.23"/>
<text text-anchor="middle" x="465.29" y="-733.8" font-family="Helvetica,Arial,sans-serif" font-size="14.00">0</text>
</g>
<!-- 12&#45;&gt;&#45;1 -->
<g id="edge8" class="edge">
<title>12&#45;&gt;&#45;1</title>
<path fill="none" stroke="black" d="M403.79,-664.98C394.32,-658.84 383.11,-650.2 375.7,-640 359.68,-617.94 350.3,-588.08 345.18,-566.37"/>
<polygon fill="black" stroke="black" points="348.56,-565.46 343,-556.44 341.72,-566.96 348.56,-565.46"/>
<text text-anchor="middle" x="379.7" y="-652.8" font-family="Helvetica,Arial,sans-serif" font-size="14.00">0</text>
</g>
<!-- 12&#45;&gt;3 -->
<g id="edge7" class="edge">
<title>12&#45;&gt;3</title>
<path fill="none" stroke="black" d="M441.68,-683.1C450.84,-687.87 461.6,-694.63 469.29,-703 480.76,-715.48 489.36,-732.42 495.16,-746.5"/>
<polygon fill="black" stroke="black" points="492.03,-748.09 498.9,-756.15 498.55,-745.56 492.03,-748.09"/>
<text text-anchor="middle" x="465.29" y="-706.8" font-family="Helvetica,Arial,sans-serif" font-size="14.00">1</text>
</g>
<!-- 2&#45;&gt;0 -->
<g id="edge10" class="edge">
<title>2&#45;&gt;0</title>
<path fill="none" stroke="black" d="M494.56,-261.37C492.08,-257.42 489.49,-253.1 487.29,-249 478.08,-231.82 484.46,-221.25 469.29,-209 437.97,-183.69 420.97,-190 380.7,-190 177,-190 177,-190 177,-190 137.14,-190 115.6,-238.95 105.77,-270.94"/>
<polygon fill="black" stroke="black" points="102.38,-270.07 102.99,-280.65 109.11,-272 102.38,-270.07"/>
<text text-anchor="middle" x="298" y="-193.8" font-family="Helvetica,Arial,sans-serif" font-size="14.00">1</text>
</g>
<!-- 2&#45;&gt;8 -->
<g id="edge9" class="edge">
<title>2&#45;&gt;8</title>
<path fill="none" stroke="black" d="M494.77,-261.25C492.29,-257.3 489.65,-253.01 487.29,-249 478.84,-234.59 483.66,-224.53 469.29,-216 426.6,-190.65 408.22,-239.48 375.7,-277 321.5,-339.53 284.11,-431.62 267.97,-476.48"/>
<polygon fill="black" stroke="black" points="264.62,-475.48 264.59,-486.07 271.22,-477.81 264.62,-475.48"/>
<text text-anchor="middle" x="379.7" y="-280.8" font-family="Helvetica,Arial,sans-serif" font-size="14.00">1</text>
</g>
<!-- 2&#45;&gt;9 -->
<g id="edge11" class="edge">
<title>2&#45;&gt;9</title>
<path fill="none" stroke="black" d="M494.96,-291.15C488.83,-299.59 479.97,-309.32 469.29,-314 462.23,-317.1 454.32,-316.02 447.09,-313.38"/>
<polygon fill="black" stroke="black" points="448.33,-310.09 437.79,-309.04 445.37,-316.44 448.33,-310.09"/>
<text text-anchor="middle" x="465.29" y="-319.8" font-family="Helvetica,Arial,sans-serif" font-size="14.00">0</text>
</g>
<!-- 8&#45;&gt;&#45;1 -->
<g id="edge28" class="edge">
<title>8&#45;&gt;&#45;1</title>
<path fill="none" stroke="black" d="M275.92,-499.49C284.09,-498.57 293.86,-498.62 302,-502 308.9,-504.86 315.15,-509.77 320.43,-515.06"/>
<polygon fill="black" stroke="black" points="318.16,-517.77 327.44,-522.88 323.38,-513.09 318.16,-517.77"/>
<text text-anchor="middle" x="298" y="-505.8" font-family="Helvetica,Arial,sans-serif" font-size="14.00">0</text>
</g>
<!-- 8&#45;&gt;1 -->
<g id="edge27" class="edge">
<title>8&#45;&gt;1</title>
<path fill="none" stroke="black" d="M241.34,-496.07C233.13,-493.35 222.94,-491.42 214,-494 209.53,-495.29 205.09,-497.33 200.94,-499.66"/>
<polygon fill="black" stroke="black" points="199,-496.75 192.43,-505.06 202.75,-502.66 199,-496.75"/>
<text text-anchor="middle" x="218" y="-497.8" font-family="Helvetica,Arial,sans-serif" font-size="14.00">1</text>
</g>
<!-- 9&#45;&gt;&#45;1 -->
<g id="edge12" class="edge">
<title>9&#45;&gt;&#45;1</title>
<path fill="none" stroke="black" d="M404.77,-294.53C395.15,-293.02 383.46,-293.17 375.7,-300 345.05,-326.97 340.3,-451.43 339.77,-508.84"/>
<polygon fill="black" stroke="black" points="336.27,-509.04 339.72,-519.06 343.27,-509.08 336.27,-509.04"/>
<text text-anchor="middle" x="379.7" y="-303.8" font-family="Helvetica,Arial,sans-serif" font-size="14.00">0</text>
</g>
<!-- 9&#45;&gt;2 -->
<g id="edge13" class="edge">
<title>9&#45;&gt;2</title>
<path fill="none" stroke="black" d="M440.24,-294.23C451.14,-291.13 465.6,-287.01 478.02,-283.48"/>
<polygon fill="black" stroke="black" points="479.19,-286.78 487.85,-280.68 477.27,-280.05 479.19,-286.78"/>
<text text-anchor="middle" x="465.29" y="-292.8" font-family="Helvetica,Arial,sans-serif" font-size="14.00">1</text>
</g>
<!-- 9&#45;&gt;4 -->
<g id="edge14" class="edge">
<title>9&#45;&gt;4</title>
<path fill="none" stroke="black" d="M426.81,-281.3C431.24,-263.17 441.02,-235.89 461.29,-223 466.1,-219.95 471.86,-218.62 477.57,-218.27"/>
<polygon fill="black" stroke="black" points="477.52,-221.77 487.6,-218.52 477.69,-214.77 477.52,-221.77"/>
<text text-anchor="middle" x="465.29" y="-226.8" font-family="Helvetica,Arial,sans-serif" font-size="14.00">0</text>
</g>
<!-- 4&#45;&gt;0 -->
<g id="edge15" class="edge">
<title>4&#45;&gt;0</title>
<path fill="none" stroke="black" d="M503.46,-203.83C501.39,-178.04 494.21,-130.58 469.29,-100 454.78,-82.19 446.48,-76 423.49,-76 177,-76 177,-76 177,-76 155.11,-76 146.69,-82.17 134,-100 114.86,-126.91 104.89,-222.18 101,-270.08"/>
<polygon fill="black" stroke="black" points="97.5,-269.84 100.21,-280.09 104.48,-270.39 97.5,-269.84"/>
<text text-anchor="middle" x="298" y="-79.8" font-family="Helvetica,Arial,sans-serif" font-size="14.00">1</text>
</g>
<!-- 4&#45;&gt;9 -->
<g id="edge16" class="edge">
<title>4&#45;&gt;9</title>
<path fill="none" stroke="black" d="M491.76,-233.95C478.86,-246.23 458.59,-265.55 443.48,-279.95"/>
<polygon fill="black" stroke="black" points="440.94,-277.54 436.12,-286.97 445.77,-282.6 440.94,-277.54"/>
<text text-anchor="middle" x="465.29" y="-266.8" font-family="Helvetica,Arial,sans-serif" font-size="14.00">1</text>
</g>
<!-- 4&#45;&gt;13 -->
<g id="edge17" class="edge">
<title>4&#45;&gt;13</title>
<path fill="none" stroke="black" d="M516.41,-236.6C525.27,-249.48 538.38,-268.83 549.29,-286 556.77,-297.78 564.76,-310.99 571.46,-322.26"/>
<polygon fill="black" stroke="black" points="568.64,-324.37 576.74,-331.2 574.67,-320.81 568.64,-324.37"/>
<text text-anchor="middle" x="545.29" y="-289.8" font-family="Helvetica,Arial,sans-serif" font-size="14.00">0</text>
</g>
<!-- 13&#45;&gt;&#45;1 -->
<g id="edge19" class="edge">
<title>13&#45;&gt;&#45;1</title>
<path fill="none" stroke="black" d="M567.39,-346.23C525.95,-341.6 429.16,-337.26 375.7,-388 358.43,-404.39 347.86,-470.36 343.01,-509.14"/>
<polygon fill="black" stroke="black" points="339.51,-508.95 341.79,-519.29 346.46,-509.78 339.51,-508.95"/>
<text text-anchor="middle" x="465.29" y="-352.8" font-family="Helvetica,Arial,sans-serif" font-size="14.00">0</text>
</g>
<!-- 13&#45;&gt;4 -->
<g id="edge18" class="edge">
<title>13&#45;&gt;4</title>
<path fill="none" stroke="black" d="M571.71,-336.06C561.86,-327.09 549.45,-314.37 541.29,-301 528.56,-280.12 533.88,-271.05 523.29,-249 522.73,-247.82 522.12,-246.63 521.49,-245.44"/>
<polygon fill="black" stroke="black" points="524.34,-243.38 516.28,-236.51 518.29,-246.91 524.34,-243.38"/>
<text text-anchor="middle" x="545.29" y="-315.8" font-family="Helvetica,Arial,sans-serif" font-size="14.00">1</text>
</g>
<!-- 6&#45;&gt;0 -->
<g id="edge20" class="edge">
<title>6&#45;&gt;0</title>
<path fill="none" stroke="black" d="M658.87,-40.37C644.61,-24.38 618.11,0 589.09,0 177,0 177,0 177,0 155.11,0 146.26,-5.87 134,-24 107.21,-63.64 100.92,-207.92 99.45,-269.66"/>
<polygon fill="black" stroke="black" points="95.94,-269.78 99.23,-279.85 102.94,-269.93 95.94,-269.78"/>
<text text-anchor="middle" x="379.7" y="-3.8" font-family="Helvetica,Arial,sans-serif" font-size="14.00">1</text>
</g>
<!-- 6&#45;&gt;11 -->
<g id="edge21" class="edge">
<title>6&#45;&gt;11</title>
<path fill="none" stroke="black" d="M666.65,-71.55C654.35,-138.22 610.45,-376.2 594.74,-461.39"/>
<polygon fill="black" stroke="black" points="591.25,-460.99 592.88,-471.46 598.14,-462.26 591.25,-460.99"/>
<text text-anchor="middle" x="630.89" y="-290.8" font-family="Helvetica,Arial,sans-serif" font-size="14.00">0</text>
</g>
<!-- 11&#45;&gt;&#45;1 -->
<g id="edge22" class="edge">
<title>11&#45;&gt;&#45;1</title>
<path fill="none" stroke="black" d="M569.8,-502.87C543.63,-518.6 491.85,-546.92 443.29,-557 413.8,-563.12 404.64,-560.36 375.7,-552 372.49,-551.07 369.16,-549.97 365.89,-548.81"/>
<polygon fill="black" stroke="black" points="367,-545.48 356.41,-545.2 364.51,-552.02 367,-545.48"/>
<text text-anchor="middle" x="465.29" y="-556.8" font-family="Helvetica,Arial,sans-serif" font-size="14.00">0</text>
</g>
<!-- 11&#45;&gt;6 -->
<g id="edge23" class="edge">
<title>11&#45;&gt;6</title>
<path fill="none" stroke="black" d="M594.72,-472.06C604.13,-438.17 623.16,-367.07 634.89,-306 650.42,-225.11 661.9,-128.36 666.98,-81.77"/>
<polygon fill="black" stroke="black" points="670.46,-82.14 668.06,-71.82 663.5,-81.39 670.46,-82.14"/>
<text text-anchor="middle" x="630.89" y="-345.8" font-family="Helvetica,Arial,sans-serif" font-size="14.00">1</text>
</g>
<!-- 11&#45;&gt;5 -->
<g id="edge24" class="edge">
<title>11&#45;&gt;5</title>
<path fill="none" stroke="black" d="M567.13,-492C557.07,-492 544.71,-492 533.76,-492"/>
<polygon fill="black" stroke="black" points="533.43,-488.5 523.43,-492 533.43,-495.5 533.43,-488.5"/>
<text text-anchor="middle" x="545.29" y="-495.8" font-family="Helvetica,Arial,sans-serif" font-size="14.00">0</text>
</g>
<!-- 5&#45;&gt;0 -->
<g id="edge37" class="edge">
<title>5&#45;&gt;0</title>
<path fill="none" stroke="black" d="M488.48,-484.43C426.5,-454.76 199.78,-346.24 123.92,-309.93"/>
<polygon fill="black" stroke="black" points="125.17,-306.65 114.64,-305.49 122.15,-312.96 125.17,-306.65"/>
<text text-anchor="middle" x="298" y="-398.8" font-family="Helvetica,Arial,sans-serif" font-size="14.00">1</text>
</g>
<!-- 5&#45;&gt;11 -->
<g id="edge36" class="edge">
<title>5&#45;&gt;11</title>
<path fill="none" stroke="black" d="M520.6,-482.13C526.7,-478.51 534.06,-474.84 541.29,-473 548.13,-471.26 555.29,-472.59 561.85,-475.19"/>
<polygon fill="black" stroke="black" points="560.44,-478.39 570.95,-479.71 563.55,-472.12 560.44,-478.39"/>
<text text-anchor="middle" x="545.29" y="-476.8" font-family="Helvetica,Arial,sans-serif" font-size="14.00">1</text>
</g>
<!-- 5&#45;&gt;10 -->
<g id="edge38" class="edge">
<title>5&#45;&gt;10</title>
<path fill="none" stroke="black" d="M490.69,-503.06C484.47,-507.63 476.83,-512.65 469.29,-516 464.16,-518.28 458.48,-520.13 452.91,-521.62"/>
<polygon fill="black" stroke="black" points="452.1,-518.21 443.17,-523.91 453.71,-525.03 452.1,-518.21"/>
<text text-anchor="middle" x="465.29" y="-522.8" font-family="Helvetica,Arial,sans-serif" font-size="14.00">0</text>
</g>
<!-- 1&#45;&gt;0 -->
<g id="edge25" class="edge">
<title>1&#45;&gt;0</title>
<path fill="none" stroke="black" d="M163.67,-504.74C153.95,-495.78 141.25,-482.39 134,-468 110.71,-421.79 102.92,-361.07 100.31,-326.11"/>
<polygon fill="black" stroke="black" points="103.8,-325.88 99.66,-316.13 96.82,-326.34 103.8,-325.88"/>
<text text-anchor="middle" x="138" y="-483.8" font-family="Helvetica,Arial,sans-serif" font-size="14.00">1</text>
</g>
<!-- 1&#45;&gt;8 -->
<g id="edge26" class="edge">
<title>1&#45;&gt;8</title>
<path fill="none" stroke="black" d="M196.26,-515.62C204.15,-515.23 213.6,-514.48 222,-513 224.92,-512.49 227.94,-511.83 230.93,-511.09"/>
<polygon fill="black" stroke="black" points="232.06,-514.41 240.78,-508.4 230.21,-507.66 232.06,-514.41"/>
<text text-anchor="middle" x="218" y="-518.8" font-family="Helvetica,Arial,sans-serif" font-size="14.00">0</text>
</g>
<!-- 10&#45;&gt;&#45;1 -->
<g id="edge40" class="edge">
<title>10&#45;&gt;&#45;1</title>
<path fill="none" stroke="black" d="M408.78,-511.34C399.86,-502.37 387.47,-493.83 375.7,-499 368.29,-502.25 361.73,-507.88 356.33,-513.86"/>
<polygon fill="black" stroke="black" points="353.27,-512.08 349.69,-522.05 358.7,-516.49 353.27,-512.08"/>
<text text-anchor="middle" x="379.7" y="-502.8" font-family="Helvetica,Arial,sans-serif" font-size="14.00">0</text>
</g>
<!-- 10&#45;&gt;5 -->
<g id="edge39" class="edge">
<title>10&#45;&gt;5</title>
<path fill="none" stroke="black" d="M437.69,-512.62C444.31,-506.79 452.63,-500.6 461.29,-497 466.2,-494.96 471.68,-493.67 477.03,-492.87"/>
<polygon fill="black" stroke="black" points="477.41,-496.35 487,-491.85 476.7,-489.38 477.41,-496.35"/>
<text text-anchor="middle" x="465.29" y="-500.8" font-family="Helvetica,Arial,sans-serif" font-size="14.00">1</text>
</g>
</g>
</svg>
